<svg xmlns="http://www.w3.org/2000/svg" width="800" height="600" viewBox="0 0 800 600">
  <defs>
    <linearGradient id="bg2" x1="0%" y1="0%" x2="100%" y2="100%">
      <stop offset="0%" stop-color="#7b341e"/>
      <stop offset="50%" stop-color="#c05621" stop-opacity="0.3"/>
      <stop offset="100%" stop-color="#7b341e"/>
    </linearGradient>
    <pattern id="grid2" width="40" height="40" patternUnits="userSpaceOnUse"><path d="M 40 0 L 0 0 0 40" fill="none" stroke="white" stroke-width="0.5" opacity="0.03"/></pattern>
  </defs>
  <rect width="100%" height="100%" fill="url(#bg2)"/>
  <rect width="100%" height="100%" fill="url(#grid2)"/>
  <circle cx="211" cy="48" r="141" fill="#c05621" opacity="0.11"/>
  <circle cx="399" cy="345" r="162" fill="#c05621" opacity="0.07"/>
  <circle cx="309" cy="336" r="92" fill="#c05621" opacity="0.11"/>
  <rect x="196" y="288" width="125" height="155" rx="8" fill="#c05621" opacity="0.07"/>
  <circle cx="373" cy="281" r="63" fill="#c05621" opacity="0.07"/>
  <circle cx="272" cy="457" r="47" fill="none" stroke="#c05621" stroke-width="2" opacity="0.12"/>
  <circle cx="85" cy="396" r="68" fill="none" stroke="#c05621" stroke-width="2" opacity="0.12"/>
  <circle cx="558" cy="522" r="38" fill="none" stroke="#c05621" stroke-width="2" opacity="0.12"/>
  <rect x="0" y="0" width="800" height="8" fill="#c05621" opacity="0.7"/>
  <circle cx="400" cy="260" r="60" fill="#c05621" opacity="0.12"/>
  <circle cx="400" cy="260" r="35" fill="#c05621" opacity="0.25"/>
  <text x="50%" y="335" text-anchor="middle" font-family="system-ui,-apple-system,sans-serif" font-size="24" font-weight="700" fill="white" opacity="0.9">Street Light Out</text>
  <text x="50%" y="360" text-anchor="middle" font-family="system-ui,-apple-system,sans-serif" font-size="13" fill="white" opacity="0.5">Constituency #3 · Demo Image</text>
  <rect x="0" y="560" width="800" height="40" fill="black" opacity="0.25"/>
  <text x="50%" y="586" text-anchor="middle" font-family="system-ui,-apple-system,sans-serif" font-size="11" fill="white" opacity="0.5">Category: Streetlights · MP Portal Demo</text>
  <rect x="660" y="16" width="124" height="28" rx="14" fill="#c05621" opacity="0.2"/>
  <text x="722" y="34" text-anchor="middle" font-family="system-ui,-apple-system,sans-serif" font-size="11" fill="#c05621" opacity="0.8">Streetlights</text>
</svg>