<svg xmlns="http://www.w3.org/2000/svg" width="800" height="600" viewBox="0 0 800 600">
  <defs>
    <linearGradient id="bg1" x1="0%" y1="0%" x2="100%" y2="100%">
      <stop offset="0%" stop-color="#e53e3e"/>
      <stop offset="50%" stop-color="#742a2a" stop-opacity="0.3"/>
      <stop offset="100%" stop-color="#e53e3e"/>
    </linearGradient>
    <pattern id="grid1" width="40" height="40" patternUnits="userSpaceOnUse"><path d="M 40 0 L 0 0 0 40" fill="none" stroke="white" stroke-width="0.5" opacity="0.03"/></pattern>
  </defs>
  <rect width="100%" height="100%" fill="url(#bg1)"/>
  <rect width="100%" height="100%" fill="url(#grid1)"/>
  <circle cx="740" cy="305" r="171" fill="#742a2a" opacity="0.08"/>
  <circle cx="164" cy="402" r="45" fill="#742a2a" opacity="0.06"/>
  <rect x="293" y="387" width="216" height="162" rx="8" fill="#742a2a" opacity="0.09"/>
  <circle cx="570" cy="386" r="103" fill="#742a2a" opacity="0.08"/>
  <circle cx="110" cy="439" r="149" fill="#742a2a" opacity="0.14"/>
  <circle cx="659" cy="471" r="159" fill="#742a2a" opacity="0.08"/>
  <circle cx="399" cy="165" r="64" fill="none" stroke="#742a2a" stroke-width="2" opacity="0.12"/>
  <circle cx="434" cy="359" r="33" fill="none" stroke="#742a2a" stroke-width="2" opacity="0.12"/>
  <circle cx="676" cy="393" r="79" fill="none" stroke="#742a2a" stroke-width="2" opacity="0.12"/>
  <circle cx="342" cy="345" r="40" fill="none" stroke="#742a2a" stroke-width="2" opacity="0.12"/>
  <rect x="0" y="0" width="800" height="8" fill="#742a2a" opacity="0.7"/>
  <circle cx="400" cy="260" r="60" fill="#742a2a" opacity="0.12"/>
  <circle cx="400" cy="260" r="35" fill="#742a2a" opacity="0.25"/>
  <text x="50%" y="335" text-anchor="middle" font-family="system-ui,-apple-system,sans-serif" font-size="28" font-weight="700" fill="white" opacity="0.9">Pothole Hazard</text>
  <text x="50%" y="360" text-anchor="middle" font-family="system-ui,-apple-system,sans-serif" font-size="13" fill="white" opacity="0.5">Constituency #2 · Demo Image</text>
  <rect x="0" y="560" width="800" height="40" fill="black" opacity="0.25"/>
  <text x="50%" y="586" text-anchor="middle" font-family="system-ui,-apple-system,sans-serif" font-size="11" fill="white" opacity="0.5">Category: Potholes · MP Portal Demo</text>
  <rect x="660" y="16" width="124" height="28" rx="14" fill="#742a2a" opacity="0.2"/>
  <text x="722" y="34" text-anchor="middle" font-family="system-ui,-apple-system,sans-serif" font-size="11" fill="#742a2a" opacity="0.8">Potholes</text>
</svg>