<svg xmlns="http://www.w3.org/2000/svg" width="800" height="600" viewBox="0 0 800 600">
  <defs>
    <linearGradient id="bg3" x1="0%" y1="0%" x2="100%" y2="100%">
      <stop offset="0%" stop-color="#4a5568"/>
      <stop offset="50%" stop-color="#718096" stop-opacity="0.3"/>
      <stop offset="100%" stop-color="#4a5568"/>
    </linearGradient>
    <pattern id="grid3" width="40" height="40" patternUnits="userSpaceOnUse"><path d="M 40 0 L 0 0 0 40" fill="none" stroke="white" stroke-width="0.5" opacity="0.03"/></pattern>
  </defs>
  <rect width="100%" height="100%" fill="url(#bg3)"/>
  <rect width="100%" height="100%" fill="url(#grid3)"/>
  <circle cx="532" cy="247" r="171" fill="#718096" opacity="0.13"/>
  <circle cx="65" cy="173" r="104" fill="#718096" opacity="0.06"/>
  <rect x="264" y="547" width="76" height="203" rx="8" fill="#718096" opacity="0.09"/>
  <rect x="571" y="259" width="170" height="204" rx="8" fill="#718096" opacity="0.07"/>
  <circle cx="647" cy="95" r="86" fill="#718096" opacity="0.08"/>
  <circle cx="326" cy="123" r="27" fill="none" stroke="#718096" stroke-width="2" opacity="0.12"/>
  <circle cx="525" cy="530" r="22" fill="none" stroke="#718096" stroke-width="2" opacity="0.12"/>
  <circle cx="648" cy="89" r="24" fill="none" stroke="#718096" stroke-width="2" opacity="0.12"/>
  <circle cx="70" cy="321" r="52" fill="none" stroke="#718096" stroke-width="2" opacity="0.12"/>
  <circle cx="640" cy="124" r="72" fill="none" stroke="#718096" stroke-width="2" opacity="0.12"/>
  <circle cx="62" cy="67" r="41" fill="none" stroke="#718096" stroke-width="2" opacity="0.12"/>
  <rect x="0" y="0" width="800" height="8" fill="#718096" opacity="0.7"/>
  <circle cx="400" cy="260" r="60" fill="#718096" opacity="0.12"/>
  <circle cx="400" cy="260" r="35" fill="#718096" opacity="0.25"/>
  <text x="50%" y="335" text-anchor="middle" font-family="system-ui,-apple-system,sans-serif" font-size="22" font-weight="700" fill="white" opacity="0.9">Road Damage</text>
  <text x="50%" y="360" text-anchor="middle" font-family="system-ui,-apple-system,sans-serif" font-size="13" fill="white" opacity="0.5">Constituency #4 · Demo Image</text>
  <rect x="0" y="560" width="800" height="40" fill="black" opacity="0.25"/>
  <text x="50%" y="586" text-anchor="middle" font-family="system-ui,-apple-system,sans-serif" font-size="11" fill="white" opacity="0.5">Category: Roads · MP Portal Demo</text>
  <rect x="660" y="16" width="124" height="28" rx="14" fill="#718096" opacity="0.2"/>
  <text x="722" y="34" text-anchor="middle" font-family="system-ui,-apple-system,sans-serif" font-size="11" fill="#718096" opacity="0.8">Roads</text>
</svg>