<svg xmlns="http://www.w3.org/2000/svg" width="800" height="600" viewBox="0 0 800 600">
  <defs>
    <linearGradient id="bg1" x1="0%" y1="0%" x2="100%" y2="100%">
      <stop offset="0%" stop-color="#718096"/>
      <stop offset="50%" stop-color="#2d3748" stop-opacity="0.3"/>
      <stop offset="100%" stop-color="#718096"/>
    </linearGradient>
    <pattern id="grid1" width="40" height="40" patternUnits="userSpaceOnUse"><path d="M 40 0 L 0 0 0 40" fill="none" stroke="white" stroke-width="0.5" opacity="0.03"/></pattern>
  </defs>
  <rect width="100%" height="100%" fill="url(#bg1)"/>
  <rect width="100%" height="100%" fill="url(#grid1)"/>
  <rect x="519" y="218" width="72" height="245" rx="8" fill="#2d3748" opacity="0.09"/>
  <rect x="348" y="214" width="237" height="243" rx="8" fill="#2d3748" opacity="0.13"/>
  <circle cx="406" cy="99" r="179" fill="#2d3748" opacity="0.06"/>
  <rect x="145" y="319" width="194" height="183" rx="8" fill="#2d3748" opacity="0.09"/>
  <circle cx="508" cy="570" r="57" fill="#2d3748" opacity="0.07"/>
  <rect x="21" y="458" width="77" height="101" rx="8" fill="#2d3748" opacity="0.12"/>
  <rect x="746" y="140" width="200" height="62" rx="8" fill="#2d3748" opacity="0.09"/>
  <circle cx="613" cy="237" r="66" fill="none" stroke="#2d3748" stroke-width="2" opacity="0.12"/>
  <circle cx="158" cy="507" r="31" fill="none" stroke="#2d3748" stroke-width="2" opacity="0.12"/>
  <circle cx="194" cy="278" r="61" fill="none" stroke="#2d3748" stroke-width="2" opacity="0.12"/>
  <circle cx="467" cy="168" r="74" fill="none" stroke="#2d3748" stroke-width="2" opacity="0.12"/>
  <circle cx="515" cy="100" r="23" fill="none" stroke="#2d3748" stroke-width="2" opacity="0.12"/>
  <circle cx="184" cy="353" r="48" fill="none" stroke="#2d3748" stroke-width="2" opacity="0.12"/>
  <rect x="0" y="0" width="800" height="8" fill="#2d3748" opacity="0.7"/>
  <circle cx="400" cy="260" r="60" fill="#2d3748" opacity="0.12"/>
  <circle cx="400" cy="260" r="35" fill="#2d3748" opacity="0.25"/>
  <text x="50%" y="335" text-anchor="middle" font-family="system-ui,-apple-system,sans-serif" font-size="24" font-weight="700" fill="white" opacity="0.9">Road Damage</text>
  <text x="50%" y="360" text-anchor="middle" font-family="system-ui,-apple-system,sans-serif" font-size="13" fill="white" opacity="0.5">Constituency #2 · Demo Image</text>
  <rect x="0" y="560" width="800" height="40" fill="black" opacity="0.25"/>
  <text x="50%" y="586" text-anchor="middle" font-family="system-ui,-apple-system,sans-serif" font-size="11" fill="white" opacity="0.5">Category: Roads · MP Portal Demo</text>
  <rect x="660" y="16" width="124" height="28" rx="14" fill="#2d3748" opacity="0.2"/>
  <text x="722" y="34" text-anchor="middle" font-family="system-ui,-apple-system,sans-serif" font-size="11" fill="#2d3748" opacity="0.8">Roads</text>
</svg>