<svg xmlns="http://www.w3.org/2000/svg" width="800" height="600" viewBox="0 0 800 600">
  <defs>
    <linearGradient id="bg0" x1="0%" y1="0%" x2="100%" y2="100%">
      <stop offset="0%" stop-color="#4a5568"/>
      <stop offset="50%" stop-color="#718096" stop-opacity="0.3"/>
      <stop offset="100%" stop-color="#4a5568"/>
    </linearGradient>
    <pattern id="grid0" width="40" height="40" patternUnits="userSpaceOnUse"><path d="M 40 0 L 0 0 0 40" fill="none" stroke="white" stroke-width="0.5" opacity="0.03"/></pattern>
  </defs>
  <rect width="100%" height="100%" fill="url(#bg0)"/>
  <rect width="100%" height="100%" fill="url(#grid0)"/>
  <rect x="603" y="95" width="163" height="243" rx="8" fill="#718096" opacity="0.09"/>
  <circle cx="380" cy="521" r="66" fill="#718096" opacity="0.12"/>
  <circle cx="268" cy="72" r="172" fill="#718096" opacity="0.12"/>
  <circle cx="230" cy="210" r="177" fill="#718096" opacity="0.14"/>
  <rect x="696" y="522" width="186" height="207" rx="8" fill="#718096" opacity="0.1"/>
  <rect x="522" y="518" width="183" height="189" rx="8" fill="#718096" opacity="0.15"/>
  <circle cx="372" cy="289" r="40" fill="none" stroke="#718096" stroke-width="2" opacity="0.12"/>
  <circle cx="641" cy="473" r="30" fill="none" stroke="#718096" stroke-width="2" opacity="0.12"/>
  <circle cx="414" cy="268" r="58" fill="none" stroke="#718096" stroke-width="2" opacity="0.12"/>
  <circle cx="686" cy="375" r="23" fill="none" stroke="#718096" stroke-width="2" opacity="0.12"/>
  <circle cx="333" cy="165" r="72" fill="none" stroke="#718096" stroke-width="2" opacity="0.12"/>
  <circle cx="156" cy="138" r="47" fill="none" stroke="#718096" stroke-width="2" opacity="0.12"/>
  <rect x="0" y="0" width="800" height="8" fill="#718096" opacity="0.7"/>
  <circle cx="400" cy="260" r="60" fill="#718096" opacity="0.12"/>
  <circle cx="400" cy="260" r="35" fill="#718096" opacity="0.25"/>
  <text x="50%" y="335" text-anchor="middle" font-family="system-ui,-apple-system,sans-serif" font-size="23" font-weight="700" fill="white" opacity="0.9">Road Damage</text>
  <text x="50%" y="360" text-anchor="middle" font-family="system-ui,-apple-system,sans-serif" font-size="13" fill="white" opacity="0.5">Constituency #1 · Demo Image</text>
  <rect x="0" y="560" width="800" height="40" fill="black" opacity="0.25"/>
  <text x="50%" y="586" text-anchor="middle" font-family="system-ui,-apple-system,sans-serif" font-size="11" fill="white" opacity="0.5">Category: Roads · MP Portal Demo</text>
  <rect x="660" y="16" width="124" height="28" rx="14" fill="#718096" opacity="0.2"/>
  <text x="722" y="34" text-anchor="middle" font-family="system-ui,-apple-system,sans-serif" font-size="11" fill="#718096" opacity="0.8">Roads</text>
</svg>