<svg xmlns="http://www.w3.org/2000/svg" width="800" height="600" viewBox="0 0 800 600">
  <defs>
    <linearGradient id="bg3" x1="0%" y1="0%" x2="100%" y2="100%">
      <stop offset="0%" stop-color="#2b6cb0"/>
      <stop offset="50%" stop-color="#3182ce" stop-opacity="0.3"/>
      <stop offset="100%" stop-color="#2b6cb0"/>
    </linearGradient>
    <pattern id="grid3" width="40" height="40" patternUnits="userSpaceOnUse"><path d="M 40 0 L 0 0 0 40" fill="none" stroke="white" stroke-width="0.5" opacity="0.03"/></pattern>
  </defs>
  <rect width="100%" height="100%" fill="url(#bg3)"/>
  <rect width="100%" height="100%" fill="url(#grid3)"/>
  <circle cx="740" cy="402" r="164" fill="#3182ce" opacity="0.05"/>
  <circle cx="76" cy="50" r="180" fill="#3182ce" opacity="0.12"/>
  <circle cx="636" cy="566" r="175" fill="#3182ce" opacity="0.09"/>
  <circle cx="638" cy="251" r="140" fill="#3182ce" opacity="0.09"/>
  <rect x="270" y="236" width="99" height="248" rx="8" fill="#3182ce" opacity="0.14"/>
  <circle cx="516" cy="421" r="21" fill="none" stroke="#3182ce" stroke-width="2" opacity="0.12"/>
  <circle cx="639" cy="173" r="47" fill="none" stroke="#3182ce" stroke-width="2" opacity="0.12"/>
  <circle cx="472" cy="84" r="67" fill="none" stroke="#3182ce" stroke-width="2" opacity="0.12"/>
  <circle cx="653" cy="443" r="47" fill="none" stroke="#3182ce" stroke-width="2" opacity="0.12"/>
  <rect x="0" y="0" width="800" height="8" fill="#3182ce" opacity="0.7"/>
  <circle cx="400" cy="260" r="60" fill="#3182ce" opacity="0.12"/>
  <circle cx="400" cy="260" r="35" fill="#3182ce" opacity="0.25"/>
  <text x="50%" y="335" text-anchor="middle" font-family="system-ui,-apple-system,sans-serif" font-size="27" font-weight="700" fill="white" opacity="0.9">Water Crisis</text>
  <text x="50%" y="360" text-anchor="middle" font-family="system-ui,-apple-system,sans-serif" font-size="13" fill="white" opacity="0.5">Constituency #4 · Demo Image</text>
  <rect x="0" y="560" width="800" height="40" fill="black" opacity="0.25"/>
  <text x="50%" y="586" text-anchor="middle" font-family="system-ui,-apple-system,sans-serif" font-size="11" fill="white" opacity="0.5">Category: Water · MP Portal Demo</text>
  <rect x="660" y="16" width="124" height="28" rx="14" fill="#3182ce" opacity="0.2"/>
  <text x="722" y="34" text-anchor="middle" font-family="system-ui,-apple-system,sans-serif" font-size="11" fill="#3182ce" opacity="0.8">Water</text>
</svg>