<svg xmlns="http://www.w3.org/2000/svg" width="800" height="600" viewBox="0 0 800 600">
  <defs>
    <linearGradient id="bg1" x1="0%" y1="0%" x2="100%" y2="100%">
      <stop offset="0%" stop-color="#3182ce"/>
      <stop offset="50%" stop-color="#1a365d" stop-opacity="0.3"/>
      <stop offset="100%" stop-color="#3182ce"/>
    </linearGradient>
    <pattern id="grid1" width="40" height="40" patternUnits="userSpaceOnUse"><path d="M 40 0 L 0 0 0 40" fill="none" stroke="white" stroke-width="0.5" opacity="0.03"/></pattern>
  </defs>
  <rect width="100%" height="100%" fill="url(#bg1)"/>
  <rect width="100%" height="100%" fill="url(#grid1)"/>
  <rect x="13" y="525" width="116" height="137" rx="8" fill="#1a365d" opacity="0.12"/>
  <rect x="253" y="23" width="145" height="139" rx="8" fill="#1a365d" opacity="0.06"/>
  <rect x="206" y="508" width="112" height="63" rx="8" fill="#1a365d" opacity="0.11"/>
  <circle cx="661" cy="93" r="157" fill="#1a365d" opacity="0.11"/>
  <circle cx="795" cy="398" r="91" fill="#1a365d" opacity="0.09"/>
  <circle cx="102" cy="129" r="146" fill="#1a365d" opacity="0.11"/>
  <rect x="108" y="344" width="158" height="88" rx="8" fill="#1a365d" opacity="0.14"/>
  <circle cx="41" cy="30" r="71" fill="#1a365d" opacity="0.07"/>
  <circle cx="665" cy="255" r="132" fill="#1a365d" opacity="0.06"/>
  <rect x="240" y="30" width="95" height="142" rx="8" fill="#1a365d" opacity="0.08"/>
  <circle cx="395" cy="91" r="58" fill="none" stroke="#1a365d" stroke-width="2" opacity="0.12"/>
  <circle cx="329" cy="357" r="29" fill="none" stroke="#1a365d" stroke-width="2" opacity="0.12"/>
  <circle cx="191" cy="542" r="37" fill="none" stroke="#1a365d" stroke-width="2" opacity="0.12"/>
  <rect x="0" y="0" width="800" height="8" fill="#1a365d" opacity="0.7"/>
  <circle cx="400" cy="260" r="60" fill="#1a365d" opacity="0.12"/>
  <circle cx="400" cy="260" r="35" fill="#1a365d" opacity="0.25"/>
  <text x="50%" y="335" text-anchor="middle" font-family="system-ui,-apple-system,sans-serif" font-size="25" font-weight="700" fill="white" opacity="0.9">Water Crisis</text>
  <text x="50%" y="360" text-anchor="middle" font-family="system-ui,-apple-system,sans-serif" font-size="13" fill="white" opacity="0.5">Constituency #2 · Demo Image</text>
  <rect x="0" y="560" width="800" height="40" fill="black" opacity="0.25"/>
  <text x="50%" y="586" text-anchor="middle" font-family="system-ui,-apple-system,sans-serif" font-size="11" fill="white" opacity="0.5">Category: Water · MP Portal Demo</text>
  <rect x="660" y="16" width="124" height="28" rx="14" fill="#1a365d" opacity="0.2"/>
  <text x="722" y="34" text-anchor="middle" font-family="system-ui,-apple-system,sans-serif" font-size="11" fill="#1a365d" opacity="0.8">Water</text>
</svg>