<svg xmlns="http://www.w3.org/2000/svg" width="800" height="600" viewBox="0 0 800 600">
  <defs>
    <linearGradient id="bg2" x1="0%" y1="0%" x2="100%" y2="100%">
      <stop offset="0%" stop-color="#1a365d"/>
      <stop offset="50%" stop-color="#2b6cb0" stop-opacity="0.3"/>
      <stop offset="100%" stop-color="#1a365d"/>
    </linearGradient>
    <pattern id="grid2" width="40" height="40" patternUnits="userSpaceOnUse"><path d="M 40 0 L 0 0 0 40" fill="none" stroke="white" stroke-width="0.5" opacity="0.03"/></pattern>
  </defs>
  <rect width="100%" height="100%" fill="url(#bg2)"/>
  <rect width="100%" height="100%" fill="url(#grid2)"/>
  <rect x="642" y="241" width="182" height="235" rx="8" fill="#2b6cb0" opacity="0.08"/>
  <rect x="549" y="282" width="74" height="217" rx="8" fill="#2b6cb0" opacity="0.08"/>
  <rect x="718" y="10" width="129" height="169" rx="8" fill="#2b6cb0" opacity="0.13"/>
  <circle cx="730" cy="278" r="40" fill="#2b6cb0" opacity="0.09"/>
  <circle cx="454" cy="485" r="79" fill="#2b6cb0" opacity="0.12"/>
  <circle cx="618" cy="62" r="23" fill="none" stroke="#2b6cb0" stroke-width="2" opacity="0.12"/>
  <circle cx="375" cy="134" r="37" fill="none" stroke="#2b6cb0" stroke-width="2" opacity="0.12"/>
  <circle cx="695" cy="397" r="66" fill="none" stroke="#2b6cb0" stroke-width="2" opacity="0.12"/>
  <circle cx="108" cy="488" r="20" fill="none" stroke="#2b6cb0" stroke-width="2" opacity="0.12"/>
  <rect x="0" y="0" width="800" height="8" fill="#2b6cb0" opacity="0.7"/>
  <circle cx="400" cy="260" r="60" fill="#2b6cb0" opacity="0.12"/>
  <circle cx="400" cy="260" r="35" fill="#2b6cb0" opacity="0.25"/>
  <text x="50%" y="335" text-anchor="middle" font-family="system-ui,-apple-system,sans-serif" font-size="23" font-weight="700" fill="white" opacity="0.9">Water Crisis</text>
  <text x="50%" y="360" text-anchor="middle" font-family="system-ui,-apple-system,sans-serif" font-size="13" fill="white" opacity="0.5">Constituency #3 · Demo Image</text>
  <rect x="0" y="560" width="800" height="40" fill="black" opacity="0.25"/>
  <text x="50%" y="586" text-anchor="middle" font-family="system-ui,-apple-system,sans-serif" font-size="11" fill="white" opacity="0.5">Category: Water · MP Portal Demo</text>
  <rect x="660" y="16" width="124" height="28" rx="14" fill="#2b6cb0" opacity="0.2"/>
  <text x="722" y="34" text-anchor="middle" font-family="system-ui,-apple-system,sans-serif" font-size="11" fill="#2b6cb0" opacity="0.8">Water</text>
</svg>