<svg xmlns="http://www.w3.org/2000/svg" width="800" height="600" viewBox="0 0 800 600">
  <rect width="100%" height="100%" fill="hsl(260, 60%, 25%)"/>
  <polygon points="200,120 230,150 200,180 170,150" fill="hsl(300, 70%, 45%)" opacity="0.15"/><polygon points="200,270 230,300 200,330 170,300" fill="hsl(300, 70%, 45%)" opacity="0.15"/><polygon points="200,420 230,450 200,480 170,450" fill="hsl(300, 70%, 45%)" opacity="0.15"/><polygon points="400,120 430,150 400,180 370,150" fill="hsl(300, 70%, 45%)" opacity="0.15"/><polygon points="400,270 430,300 400,330 370,300" fill="hsl(300, 70%, 45%)" opacity="0.15"/><polygon points="400,420 430,450 400,480 370,450" fill="hsl(300, 70%, 45%)" opacity="0.15"/><polygon points="600,120 630,150 600,180 570,150" fill="hsl(300, 70%, 45%)" opacity="0.15"/><polygon points="600,270 630,300 600,330 570,300" fill="hsl(300, 70%, 45%)" opacity="0.15"/><polygon points="600,420 630,450 600,480 570,450" fill="hsl(300, 70%, 45%)" opacity="0.15"/>
  <text x="50%" y="45%" text-anchor="middle" font-family="system-ui, sans-serif" font-size="20" font-weight="600" fill="#ffffff" opacity="0.8">news-Education</text>
  <text x="50%" y="55%" text-anchor="middle" font-family="system-ui, sans-serif" font-size="14" fill="#ffffff" opacity="0.5">Social Media Post</text>
</svg>