<svg xmlns="http://www.w3.org/2000/svg" width="800" height="600" viewBox="0 0 800 600">
  <defs>
    <linearGradient id="bg3" x1="0%" y1="0%" x2="100%" y2="100%">
      <stop offset="0%" stop-color="#742a2a"/>
      <stop offset="50%" stop-color="#9b2c2c" stop-opacity="0.3"/>
      <stop offset="100%" stop-color="#742a2a"/>
    </linearGradient>
    <pattern id="grid3" width="40" height="40" patternUnits="userSpaceOnUse"><path d="M 40 0 L 0 0 0 40" fill="none" stroke="white" stroke-width="0.5" opacity="0.03"/></pattern>
  </defs>
  <rect width="100%" height="100%" fill="url(#bg3)"/>
  <rect width="100%" height="100%" fill="url(#grid3)"/>
  <rect x="668" y="336" width="93" height="201" rx="8" fill="#9b2c2c" opacity="0.12"/>
  <rect x="229" y="360" width="88" height="149" rx="8" fill="#9b2c2c" opacity="0.13"/>
  <circle cx="600" cy="597" r="142" fill="#9b2c2c" opacity="0.11"/>
  <rect x="712" y="487" width="107" height="207" rx="8" fill="#9b2c2c" opacity="0.08"/>
  <rect x="676" y="301" width="170" height="99" rx="8" fill="#9b2c2c" opacity="0.08"/>
  <circle cx="319" cy="435" r="28" fill="none" stroke="#9b2c2c" stroke-width="2" opacity="0.12"/>
  <circle cx="451" cy="52" r="26" fill="none" stroke="#9b2c2c" stroke-width="2" opacity="0.12"/>
  <circle cx="486" cy="160" r="43" fill="none" stroke="#9b2c2c" stroke-width="2" opacity="0.12"/>
  <circle cx="263" cy="388" r="62" fill="none" stroke="#9b2c2c" stroke-width="2" opacity="0.12"/>
  <rect x="0" y="0" width="800" height="8" fill="#9b2c2c" opacity="0.7"/>
  <circle cx="400" cy="260" r="60" fill="#9b2c2c" opacity="0.12"/>
  <circle cx="400" cy="260" r="35" fill="#9b2c2c" opacity="0.25"/>
  <text x="50%" y="335" text-anchor="middle" font-family="system-ui,-apple-system,sans-serif" font-size="28" font-weight="700" fill="white" opacity="0.9">Pollution</text>
  <text x="50%" y="360" text-anchor="middle" font-family="system-ui,-apple-system,sans-serif" font-size="13" fill="white" opacity="0.5">Constituency #4 · Demo Image</text>
  <rect x="0" y="560" width="800" height="40" fill="black" opacity="0.25"/>
  <text x="50%" y="586" text-anchor="middle" font-family="system-ui,-apple-system,sans-serif" font-size="11" fill="white" opacity="0.5">Category: Pollution · MP Portal Demo</text>
  <rect x="660" y="16" width="124" height="28" rx="14" fill="#9b2c2c" opacity="0.2"/>
  <text x="722" y="34" text-anchor="middle" font-family="system-ui,-apple-system,sans-serif" font-size="11" fill="#9b2c2c" opacity="0.8">Pollution</text>
</svg>