<svg xmlns="http://www.w3.org/2000/svg" width="800" height="600" viewBox="0 0 800 600">
  <defs>
    <linearGradient id="bg1" x1="0%" y1="0%" x2="100%" y2="100%">
      <stop offset="0%" stop-color="#9b2c2c"/>
      <stop offset="50%" stop-color="#3b1111" stop-opacity="0.3"/>
      <stop offset="100%" stop-color="#9b2c2c"/>
    </linearGradient>
    <pattern id="grid1" width="40" height="40" patternUnits="userSpaceOnUse"><path d="M 40 0 L 0 0 0 40" fill="none" stroke="white" stroke-width="0.5" opacity="0.03"/></pattern>
  </defs>
  <rect width="100%" height="100%" fill="url(#bg1)"/>
  <rect width="100%" height="100%" fill="url(#grid1)"/>
  <rect x="421" y="458" width="237" height="110" rx="8" fill="#3b1111" opacity="0.13"/>
  <rect x="483" y="16" width="146" height="140" rx="8" fill="#3b1111" opacity="0.13"/>
  <rect x="689" y="90" width="81" height="173" rx="8" fill="#3b1111" opacity="0.15"/>
  <rect x="407" y="468" width="244" height="189" rx="8" fill="#3b1111" opacity="0.13"/>
  <rect x="390" y="423" width="228" height="167" rx="8" fill="#3b1111" opacity="0.12"/>
  <rect x="322" y="295" width="66" height="85" rx="8" fill="#3b1111" opacity="0.09"/>
  <circle cx="454" cy="370" r="179" fill="#3b1111" opacity="0.08"/>
  <circle cx="293" cy="20" r="129" fill="#3b1111" opacity="0.06"/>
  <circle cx="427" cy="471" r="53" fill="none" stroke="#3b1111" stroke-width="2" opacity="0.12"/>
  <circle cx="388" cy="158" r="59" fill="none" stroke="#3b1111" stroke-width="2" opacity="0.12"/>
  <circle cx="225" cy="175" r="71" fill="none" stroke="#3b1111" stroke-width="2" opacity="0.12"/>
  <circle cx="568" cy="446" r="31" fill="none" stroke="#3b1111" stroke-width="2" opacity="0.12"/>
  <circle cx="370" cy="463" r="69" fill="none" stroke="#3b1111" stroke-width="2" opacity="0.12"/>
  <circle cx="561" cy="315" r="74" fill="none" stroke="#3b1111" stroke-width="2" opacity="0.12"/>
  <rect x="0" y="0" width="800" height="8" fill="#3b1111" opacity="0.7"/>
  <circle cx="400" cy="260" r="60" fill="#3b1111" opacity="0.12"/>
  <circle cx="400" cy="260" r="35" fill="#3b1111" opacity="0.25"/>
  <text x="50%" y="335" text-anchor="middle" font-family="system-ui,-apple-system,sans-serif" font-size="22" font-weight="700" fill="white" opacity="0.9">Pollution</text>
  <text x="50%" y="360" text-anchor="middle" font-family="system-ui,-apple-system,sans-serif" font-size="13" fill="white" opacity="0.5">Constituency #2 · Demo Image</text>
  <rect x="0" y="560" width="800" height="40" fill="black" opacity="0.25"/>
  <text x="50%" y="586" text-anchor="middle" font-family="system-ui,-apple-system,sans-serif" font-size="11" fill="white" opacity="0.5">Category: Pollution · MP Portal Demo</text>
  <rect x="660" y="16" width="124" height="28" rx="14" fill="#3b1111" opacity="0.2"/>
  <text x="722" y="34" text-anchor="middle" font-family="system-ui,-apple-system,sans-serif" font-size="11" fill="#3b1111" opacity="0.8">Pollution</text>
</svg>