<svg xmlns="http://www.w3.org/2000/svg" width="800" height="600" viewBox="0 0 800 600">
  <defs>
    <linearGradient id="bg2" x1="0%" y1="0%" x2="100%" y2="100%">
      <stop offset="0%" stop-color="#3b1111"/>
      <stop offset="50%" stop-color="#742a2a" stop-opacity="0.3"/>
      <stop offset="100%" stop-color="#3b1111"/>
    </linearGradient>
    <pattern id="grid2" width="40" height="40" patternUnits="userSpaceOnUse"><path d="M 40 0 L 0 0 0 40" fill="none" stroke="white" stroke-width="0.5" opacity="0.03"/></pattern>
  </defs>
  <rect width="100%" height="100%" fill="url(#bg2)"/>
  <rect width="100%" height="100%" fill="url(#grid2)"/>
  <circle cx="565" cy="80" r="90" fill="#742a2a" opacity="0.14"/>
  <circle cx="55" cy="5" r="98" fill="#742a2a" opacity="0.12"/>
  <rect x="512" y="80" width="198" height="166" rx="8" fill="#742a2a" opacity="0.13"/>
  <rect x="206" y="377" width="201" height="203" rx="8" fill="#742a2a" opacity="0.13"/>
  <circle cx="615" cy="146" r="147" fill="#742a2a" opacity="0.07"/>
  <circle cx="548" cy="69" r="22" fill="none" stroke="#742a2a" stroke-width="2" opacity="0.12"/>
  <circle cx="699" cy="166" r="31" fill="none" stroke="#742a2a" stroke-width="2" opacity="0.12"/>
  <circle cx="442" cy="512" r="43" fill="none" stroke="#742a2a" stroke-width="2" opacity="0.12"/>
  <circle cx="235" cy="511" r="26" fill="none" stroke="#742a2a" stroke-width="2" opacity="0.12"/>
  <circle cx="373" cy="320" r="61" fill="none" stroke="#742a2a" stroke-width="2" opacity="0.12"/>
  <rect x="0" y="0" width="800" height="8" fill="#742a2a" opacity="0.7"/>
  <circle cx="400" cy="260" r="60" fill="#742a2a" opacity="0.12"/>
  <circle cx="400" cy="260" r="35" fill="#742a2a" opacity="0.25"/>
  <text x="50%" y="335" text-anchor="middle" font-family="system-ui,-apple-system,sans-serif" font-size="26" font-weight="700" fill="white" opacity="0.9">Pollution</text>
  <text x="50%" y="360" text-anchor="middle" font-family="system-ui,-apple-system,sans-serif" font-size="13" fill="white" opacity="0.5">Constituency #3 · Demo Image</text>
  <rect x="0" y="560" width="800" height="40" fill="black" opacity="0.25"/>
  <text x="50%" y="586" text-anchor="middle" font-family="system-ui,-apple-system,sans-serif" font-size="11" fill="white" opacity="0.5">Category: Pollution · MP Portal Demo</text>
  <rect x="660" y="16" width="124" height="28" rx="14" fill="#742a2a" opacity="0.2"/>
  <text x="722" y="34" text-anchor="middle" font-family="system-ui,-apple-system,sans-serif" font-size="11" fill="#742a2a" opacity="0.8">Pollution</text>
</svg>