<svg xmlns="http://www.w3.org/2000/svg" width="800" height="600" viewBox="0 0 800 600">
  <defs>
    <linearGradient id="bg0" x1="0%" y1="0%" x2="100%" y2="100%">
      <stop offset="0%" stop-color="#276749"/>
      <stop offset="50%" stop-color="#48bb78" stop-opacity="0.3"/>
      <stop offset="100%" stop-color="#276749"/>
    </linearGradient>
    <pattern id="grid0" width="40" height="40" patternUnits="userSpaceOnUse"><path d="M 40 0 L 0 0 0 40" fill="none" stroke="white" stroke-width="0.5" opacity="0.03"/></pattern>
  </defs>
  <rect width="100%" height="100%" fill="url(#bg0)"/>
  <rect width="100%" height="100%" fill="url(#grid0)"/>
  <circle cx="784" cy="524" r="141" fill="#48bb78" opacity="0.15"/>
  <rect x="429" y="489" width="77" height="133" rx="8" fill="#48bb78" opacity="0.07"/>
  <circle cx="287" cy="471" r="168" fill="#48bb78" opacity="0.14"/>
  <circle cx="120" cy="270" r="67" fill="#48bb78" opacity="0.1"/>
  <rect x="283" y="49" width="241" height="210" rx="8" fill="#48bb78" opacity="0.13"/>
  <rect x="70" y="110" width="200" height="190" rx="8" fill="#48bb78" opacity="0.09"/>
  <rect x="390" y="485" width="61" height="126" rx="8" fill="#48bb78" opacity="0.06"/>
  <circle cx="281" cy="586" r="126" fill="#48bb78" opacity="0.08"/>
  <rect x="548" y="86" width="218" height="153" rx="8" fill="#48bb78" opacity="0.14"/>
  <circle cx="533" cy="528" r="128" fill="#48bb78" opacity="0.07"/>
  <circle cx="373" cy="109" r="56" fill="none" stroke="#48bb78" stroke-width="2" opacity="0.12"/>
  <circle cx="425" cy="72" r="73" fill="none" stroke="#48bb78" stroke-width="2" opacity="0.12"/>
  <circle cx="398" cy="210" r="22" fill="none" stroke="#48bb78" stroke-width="2" opacity="0.12"/>
  <circle cx="667" cy="281" r="48" fill="none" stroke="#48bb78" stroke-width="2" opacity="0.12"/>
  <rect x="0" y="0" width="800" height="8" fill="#48bb78" opacity="0.7"/>
  <circle cx="400" cy="260" r="60" fill="#48bb78" opacity="0.12"/>
  <circle cx="400" cy="260" r="35" fill="#48bb78" opacity="0.25"/>
  <text x="50%" y="335" text-anchor="middle" font-family="system-ui,-apple-system,sans-serif" font-size="22" font-weight="700" fill="white" opacity="0.9">Park Issue</text>
  <text x="50%" y="360" text-anchor="middle" font-family="system-ui,-apple-system,sans-serif" font-size="13" fill="white" opacity="0.5">Constituency #1 · Demo Image</text>
  <rect x="0" y="560" width="800" height="40" fill="black" opacity="0.25"/>
  <text x="50%" y="586" text-anchor="middle" font-family="system-ui,-apple-system,sans-serif" font-size="11" fill="white" opacity="0.5">Category: Parks · MP Portal Demo</text>
  <rect x="660" y="16" width="124" height="28" rx="14" fill="#48bb78" opacity="0.2"/>
  <text x="722" y="34" text-anchor="middle" font-family="system-ui,-apple-system,sans-serif" font-size="11" fill="#48bb78" opacity="0.8">Parks</text>
</svg>