<svg xmlns="http://www.w3.org/2000/svg" width="800" height="600" viewBox="0 0 800 600">
  <defs>
    <linearGradient id="bg1" x1="0%" y1="0%" x2="100%" y2="100%">
      <stop offset="0%" stop-color="#48bb78"/>
      <stop offset="50%" stop-color="#14532d" stop-opacity="0.3"/>
      <stop offset="100%" stop-color="#48bb78"/>
    </linearGradient>
    <pattern id="grid1" width="40" height="40" patternUnits="userSpaceOnUse"><path d="M 40 0 L 0 0 0 40" fill="none" stroke="white" stroke-width="0.5" opacity="0.03"/></pattern>
  </defs>
  <rect width="100%" height="100%" fill="url(#bg1)"/>
  <rect width="100%" height="100%" fill="url(#grid1)"/>
  <circle cx="208" cy="0" r="56" fill="#14532d" opacity="0.09"/>
  <circle cx="33" cy="42" r="107" fill="#14532d" opacity="0.05"/>
  <rect x="542" y="541" width="87" height="132" rx="8" fill="#14532d" opacity="0.15"/>
  <circle cx="405" cy="321" r="44" fill="#14532d" opacity="0.05"/>
  <rect x="318" y="297" width="143" height="107" rx="8" fill="#14532d" opacity="0.09"/>
  <circle cx="235" cy="582" r="162" fill="#14532d" opacity="0.05"/>
  <circle cx="137" cy="540" r="74" fill="none" stroke="#14532d" stroke-width="2" opacity="0.12"/>
  <circle cx="341" cy="175" r="25" fill="none" stroke="#14532d" stroke-width="2" opacity="0.12"/>
  <circle cx="574" cy="430" r="63" fill="none" stroke="#14532d" stroke-width="2" opacity="0.12"/>
  <circle cx="245" cy="368" r="34" fill="none" stroke="#14532d" stroke-width="2" opacity="0.12"/>
  <circle cx="71" cy="238" r="79" fill="none" stroke="#14532d" stroke-width="2" opacity="0.12"/>
  <circle cx="369" cy="508" r="22" fill="none" stroke="#14532d" stroke-width="2" opacity="0.12"/>
  <rect x="0" y="0" width="800" height="8" fill="#14532d" opacity="0.7"/>
  <circle cx="400" cy="260" r="60" fill="#14532d" opacity="0.12"/>
  <circle cx="400" cy="260" r="35" fill="#14532d" opacity="0.25"/>
  <text x="50%" y="335" text-anchor="middle" font-family="system-ui,-apple-system,sans-serif" font-size="25" font-weight="700" fill="white" opacity="0.9">Park Issue</text>
  <text x="50%" y="360" text-anchor="middle" font-family="system-ui,-apple-system,sans-serif" font-size="13" fill="white" opacity="0.5">Constituency #2 · Demo Image</text>
  <rect x="0" y="560" width="800" height="40" fill="black" opacity="0.25"/>
  <text x="50%" y="586" text-anchor="middle" font-family="system-ui,-apple-system,sans-serif" font-size="11" fill="white" opacity="0.5">Category: Parks · MP Portal Demo</text>
  <rect x="660" y="16" width="124" height="28" rx="14" fill="#14532d" opacity="0.2"/>
  <text x="722" y="34" text-anchor="middle" font-family="system-ui,-apple-system,sans-serif" font-size="11" fill="#14532d" opacity="0.8">Parks</text>
</svg>