<svg xmlns="http://www.w3.org/2000/svg" width="800" height="600" viewBox="0 0 800 600">
  <defs>
    <linearGradient id="bg2" x1="0%" y1="0%" x2="100%" y2="100%">
      <stop offset="0%" stop-color="#14532d"/>
      <stop offset="50%" stop-color="#276749" stop-opacity="0.3"/>
      <stop offset="100%" stop-color="#14532d"/>
    </linearGradient>
    <pattern id="grid2" width="40" height="40" patternUnits="userSpaceOnUse"><path d="M 40 0 L 0 0 0 40" fill="none" stroke="white" stroke-width="0.5" opacity="0.03"/></pattern>
  </defs>
  <rect width="100%" height="100%" fill="url(#bg2)"/>
  <rect width="100%" height="100%" fill="url(#grid2)"/>
  <circle cx="707" cy="299" r="84" fill="#276749" opacity="0.09"/>
  <rect x="163" y="66" width="82" height="84" rx="8" fill="#276749" opacity="0.08"/>
  <rect x="21" y="473" width="154" height="86" rx="8" fill="#276749" opacity="0.1"/>
  <rect x="343" y="470" width="75" height="153" rx="8" fill="#276749" opacity="0.08"/>
  <circle cx="233" cy="500" r="78" fill="#276749" opacity="0.1"/>
  <circle cx="653" cy="95" r="140" fill="#276749" opacity="0.06"/>
  <circle cx="170" cy="324" r="108" fill="#276749" opacity="0.08"/>
  <circle cx="200" cy="100" r="96" fill="#276749" opacity="0.08"/>
  <circle cx="340" cy="250" r="80" fill="none" stroke="#276749" stroke-width="2" opacity="0.12"/>
  <circle cx="133" cy="382" r="62" fill="none" stroke="#276749" stroke-width="2" opacity="0.12"/>
  <circle cx="423" cy="279" r="55" fill="none" stroke="#276749" stroke-width="2" opacity="0.12"/>
  <circle cx="403" cy="404" r="72" fill="none" stroke="#276749" stroke-width="2" opacity="0.12"/>
  <circle cx="684" cy="257" r="47" fill="none" stroke="#276749" stroke-width="2" opacity="0.12"/>
  <rect x="0" y="0" width="800" height="8" fill="#276749" opacity="0.7"/>
  <circle cx="400" cy="260" r="60" fill="#276749" opacity="0.12"/>
  <circle cx="400" cy="260" r="35" fill="#276749" opacity="0.25"/>
  <text x="50%" y="335" text-anchor="middle" font-family="system-ui,-apple-system,sans-serif" font-size="26" font-weight="700" fill="white" opacity="0.9">Park Issue</text>
  <text x="50%" y="360" text-anchor="middle" font-family="system-ui,-apple-system,sans-serif" font-size="13" fill="white" opacity="0.5">Constituency #3 · Demo Image</text>
  <rect x="0" y="560" width="800" height="40" fill="black" opacity="0.25"/>
  <text x="50%" y="586" text-anchor="middle" font-family="system-ui,-apple-system,sans-serif" font-size="11" fill="white" opacity="0.5">Category: Parks · MP Portal Demo</text>
  <rect x="660" y="16" width="124" height="28" rx="14" fill="#276749" opacity="0.2"/>
  <text x="722" y="34" text-anchor="middle" font-family="system-ui,-apple-system,sans-serif" font-size="11" fill="#276749" opacity="0.8">Parks</text>
</svg>