<svg xmlns="http://www.w3.org/2000/svg" width="800" height="600" viewBox="0 0 800 600">
  <defs>
    <linearGradient id="bg0" x1="0%" y1="0%" x2="100%" y2="100%">
      <stop offset="0%" stop-color="#2b6cb0"/>
      <stop offset="50%" stop-color="#4299e1" stop-opacity="0.3"/>
      <stop offset="100%" stop-color="#2b6cb0"/>
    </linearGradient>
    <pattern id="grid0" width="40" height="40" patternUnits="userSpaceOnUse"><path d="M 40 0 L 0 0 0 40" fill="none" stroke="white" stroke-width="0.5" opacity="0.03"/></pattern>
  </defs>
  <rect width="100%" height="100%" fill="url(#bg0)"/>
  <rect width="100%" height="100%" fill="url(#grid0)"/>
  <circle cx="63" cy="415" r="177" fill="#4299e1" opacity="0.1"/>
  <circle cx="522" cy="481" r="102" fill="#4299e1" opacity="0.13"/>
  <rect x="628" y="337" width="77" height="247" rx="8" fill="#4299e1" opacity="0.12"/>
  <rect x="727" y="259" width="240" height="89" rx="8" fill="#4299e1" opacity="0.13"/>
  <circle cx="319" cy="176" r="92" fill="#4299e1" opacity="0.15"/>
  <rect x="427" y="498" width="249" height="75" rx="8" fill="#4299e1" opacity="0.12"/>
  <circle cx="266" cy="283" r="78" fill="none" stroke="#4299e1" stroke-width="2" opacity="0.12"/>
  <circle cx="141" cy="237" r="35" fill="none" stroke="#4299e1" stroke-width="2" opacity="0.12"/>
  <circle cx="312" cy="537" r="70" fill="none" stroke="#4299e1" stroke-width="2" opacity="0.12"/>
  <rect x="0" y="0" width="800" height="8" fill="#4299e1" opacity="0.7"/>
  <circle cx="400" cy="260" r="60" fill="#4299e1" opacity="0.12"/>
  <circle cx="400" cy="260" r="35" fill="#4299e1" opacity="0.25"/>
  <text x="50%" y="335" text-anchor="middle" font-family="system-ui,-apple-system,sans-serif" font-size="23" font-weight="700" fill="white" opacity="0.9">Flooding</text>
  <text x="50%" y="360" text-anchor="middle" font-family="system-ui,-apple-system,sans-serif" font-size="13" fill="white" opacity="0.5">Constituency #1 · Demo Image</text>
  <rect x="0" y="560" width="800" height="40" fill="black" opacity="0.25"/>
  <text x="50%" y="586" text-anchor="middle" font-family="system-ui,-apple-system,sans-serif" font-size="11" fill="white" opacity="0.5">Category: Flooding · MP Portal Demo</text>
  <rect x="660" y="16" width="124" height="28" rx="14" fill="#4299e1" opacity="0.2"/>
  <text x="722" y="34" text-anchor="middle" font-family="system-ui,-apple-system,sans-serif" font-size="11" fill="#4299e1" opacity="0.8">Flooding</text>
</svg>