<svg xmlns="http://www.w3.org/2000/svg" width="800" height="600" viewBox="0 0 800 600">
  <defs>
    <linearGradient id="bg3" x1="0%" y1="0%" x2="100%" y2="100%">
      <stop offset="0%" stop-color="#2b6cb0"/>
      <stop offset="50%" stop-color="#4299e1" stop-opacity="0.3"/>
      <stop offset="100%" stop-color="#2b6cb0"/>
    </linearGradient>
    <pattern id="grid3" width="40" height="40" patternUnits="userSpaceOnUse"><path d="M 40 0 L 0 0 0 40" fill="none" stroke="white" stroke-width="0.5" opacity="0.03"/></pattern>
  </defs>
  <rect width="100%" height="100%" fill="url(#bg3)"/>
  <rect width="100%" height="100%" fill="url(#grid3)"/>
  <rect x="426" y="235" width="183" height="197" rx="8" fill="#4299e1" opacity="0.12"/>
  <circle cx="748" cy="546" r="63" fill="#4299e1" opacity="0.13"/>
  <circle cx="327" cy="589" r="122" fill="#4299e1" opacity="0.09"/>
  <circle cx="268" cy="568" r="115" fill="#4299e1" opacity="0.06"/>
  <circle cx="589" cy="557" r="123" fill="#4299e1" opacity="0.08"/>
  <circle cx="344" cy="413" r="37" fill="none" stroke="#4299e1" stroke-width="2" opacity="0.12"/>
  <circle cx="732" cy="387" r="43" fill="none" stroke="#4299e1" stroke-width="2" opacity="0.12"/>
  <circle cx="684" cy="450" r="75" fill="none" stroke="#4299e1" stroke-width="2" opacity="0.12"/>
  <circle cx="79" cy="231" r="78" fill="none" stroke="#4299e1" stroke-width="2" opacity="0.12"/>
  <circle cx="475" cy="306" r="27" fill="none" stroke="#4299e1" stroke-width="2" opacity="0.12"/>
  <circle cx="740" cy="355" r="44" fill="none" stroke="#4299e1" stroke-width="2" opacity="0.12"/>
  <rect x="0" y="0" width="800" height="8" fill="#4299e1" opacity="0.7"/>
  <circle cx="400" cy="260" r="60" fill="#4299e1" opacity="0.12"/>
  <circle cx="400" cy="260" r="35" fill="#4299e1" opacity="0.25"/>
  <text x="50%" y="335" text-anchor="middle" font-family="system-ui,-apple-system,sans-serif" font-size="28" font-weight="700" fill="white" opacity="0.9">Flooding</text>
  <text x="50%" y="360" text-anchor="middle" font-family="system-ui,-apple-system,sans-serif" font-size="13" fill="white" opacity="0.5">Constituency #4 · Demo Image</text>
  <rect x="0" y="560" width="800" height="40" fill="black" opacity="0.25"/>
  <text x="50%" y="586" text-anchor="middle" font-family="system-ui,-apple-system,sans-serif" font-size="11" fill="white" opacity="0.5">Category: Flooding · MP Portal Demo</text>
  <rect x="660" y="16" width="124" height="28" rx="14" fill="#4299e1" opacity="0.2"/>
  <text x="722" y="34" text-anchor="middle" font-family="system-ui,-apple-system,sans-serif" font-size="11" fill="#4299e1" opacity="0.8">Flooding</text>
</svg>