<svg xmlns="http://www.w3.org/2000/svg" width="800" height="600" viewBox="0 0 800 600">
  <defs>
    <linearGradient id="bg1" x1="0%" y1="0%" x2="100%" y2="100%">
      <stop offset="0%" stop-color="#4299e1"/>
      <stop offset="50%" stop-color="#1a365d" stop-opacity="0.3"/>
      <stop offset="100%" stop-color="#4299e1"/>
    </linearGradient>
    <pattern id="grid1" width="40" height="40" patternUnits="userSpaceOnUse"><path d="M 40 0 L 0 0 0 40" fill="none" stroke="white" stroke-width="0.5" opacity="0.03"/></pattern>
  </defs>
  <rect width="100%" height="100%" fill="url(#bg1)"/>
  <rect width="100%" height="100%" fill="url(#grid1)"/>
  <rect x="287" y="309" width="82" height="87" rx="8" fill="#1a365d" opacity="0.13"/>
  <rect x="280" y="101" width="170" height="127" rx="8" fill="#1a365d" opacity="0.1"/>
  <rect x="156" y="504" width="63" height="199" rx="8" fill="#1a365d" opacity="0.09"/>
  <rect x="702" y="433" width="123" height="154" rx="8" fill="#1a365d" opacity="0.06"/>
  <rect x="659" y="83" width="192" height="164" rx="8" fill="#1a365d" opacity="0.09"/>
  <rect x="414" y="531" width="194" height="120" rx="8" fill="#1a365d" opacity="0.1"/>
  <circle cx="506" cy="554" r="87" fill="#1a365d" opacity="0.1"/>
  <circle cx="373" cy="497" r="52" fill="none" stroke="#1a365d" stroke-width="2" opacity="0.12"/>
  <circle cx="568" cy="432" r="50" fill="none" stroke="#1a365d" stroke-width="2" opacity="0.12"/>
  <circle cx="126" cy="233" r="54" fill="none" stroke="#1a365d" stroke-width="2" opacity="0.12"/>
  <circle cx="120" cy="168" r="54" fill="none" stroke="#1a365d" stroke-width="2" opacity="0.12"/>
  <circle cx="140" cy="416" r="51" fill="none" stroke="#1a365d" stroke-width="2" opacity="0.12"/>
  <rect x="0" y="0" width="800" height="8" fill="#1a365d" opacity="0.7"/>
  <circle cx="400" cy="260" r="60" fill="#1a365d" opacity="0.12"/>
  <circle cx="400" cy="260" r="35" fill="#1a365d" opacity="0.25"/>
  <text x="50%" y="335" text-anchor="middle" font-family="system-ui,-apple-system,sans-serif" font-size="26" font-weight="700" fill="white" opacity="0.9">Flooding</text>
  <text x="50%" y="360" text-anchor="middle" font-family="system-ui,-apple-system,sans-serif" font-size="13" fill="white" opacity="0.5">Constituency #2 · Demo Image</text>
  <rect x="0" y="560" width="800" height="40" fill="black" opacity="0.25"/>
  <text x="50%" y="586" text-anchor="middle" font-family="system-ui,-apple-system,sans-serif" font-size="11" fill="white" opacity="0.5">Category: Flooding · MP Portal Demo</text>
  <rect x="660" y="16" width="124" height="28" rx="14" fill="#1a365d" opacity="0.2"/>
  <text x="722" y="34" text-anchor="middle" font-family="system-ui,-apple-system,sans-serif" font-size="11" fill="#1a365d" opacity="0.8">Flooding</text>
</svg>