<svg xmlns="http://www.w3.org/2000/svg" width="800" height="600" viewBox="0 0 800 600">
  <defs>
    <linearGradient id="bg3" x1="0%" y1="0%" x2="100%" y2="100%">
      <stop offset="0%" stop-color="#2d3748"/>
      <stop offset="50%" stop-color="#4a5568" stop-opacity="0.3"/>
      <stop offset="100%" stop-color="#2d3748"/>
    </linearGradient>
    <pattern id="grid3" width="40" height="40" patternUnits="userSpaceOnUse"><path d="M 40 0 L 0 0 0 40" fill="none" stroke="white" stroke-width="0.5" opacity="0.03"/></pattern>
  </defs>
  <rect width="100%" height="100%" fill="url(#bg3)"/>
  <rect width="100%" height="100%" fill="url(#grid3)"/>
  <rect x="39" y="95" width="177" height="179" rx="8" fill="#4a5568" opacity="0.15"/>
  <rect x="749" y="163" width="124" height="151" rx="8" fill="#4a5568" opacity="0.12"/>
  <rect x="59" y="423" width="222" height="104" rx="8" fill="#4a5568" opacity="0.14"/>
  <rect x="609" y="216" width="83" height="103" rx="8" fill="#4a5568" opacity="0.14"/>
  <circle cx="82" cy="541" r="79" fill="#4a5568" opacity="0.11"/>
  <circle cx="250" cy="309" r="65" fill="#4a5568" opacity="0.08"/>
  <circle cx="606" cy="287" r="126" fill="#4a5568" opacity="0.13"/>
  <rect x="135" y="29" width="81" height="207" rx="8" fill="#4a5568" opacity="0.08"/>
  <rect x="163" y="506" width="145" height="103" rx="8" fill="#4a5568" opacity="0.12"/>
  <circle cx="415" cy="75" r="80" fill="none" stroke="#4a5568" stroke-width="2" opacity="0.12"/>
  <circle cx="643" cy="270" r="44" fill="none" stroke="#4a5568" stroke-width="2" opacity="0.12"/>
  <circle cx="230" cy="130" r="55" fill="none" stroke="#4a5568" stroke-width="2" opacity="0.12"/>
  <circle cx="428" cy="544" r="66" fill="none" stroke="#4a5568" stroke-width="2" opacity="0.12"/>
  <circle cx="301" cy="159" r="56" fill="none" stroke="#4a5568" stroke-width="2" opacity="0.12"/>
  <rect x="0" y="0" width="800" height="8" fill="#4a5568" opacity="0.7"/>
  <circle cx="400" cy="260" r="60" fill="#4a5568" opacity="0.12"/>
  <circle cx="400" cy="260" r="35" fill="#4a5568" opacity="0.25"/>
  <text x="50%" y="335" text-anchor="middle" font-family="system-ui,-apple-system,sans-serif" font-size="25" font-weight="700" fill="white" opacity="0.9">Drainage Issue</text>
  <text x="50%" y="360" text-anchor="middle" font-family="system-ui,-apple-system,sans-serif" font-size="13" fill="white" opacity="0.5">Constituency #4 · Demo Image</text>
  <rect x="0" y="560" width="800" height="40" fill="black" opacity="0.25"/>
  <text x="50%" y="586" text-anchor="middle" font-family="system-ui,-apple-system,sans-serif" font-size="11" fill="white" opacity="0.5">Category: Drainage · MP Portal Demo</text>
  <rect x="660" y="16" width="124" height="28" rx="14" fill="#4a5568" opacity="0.2"/>
  <text x="722" y="34" text-anchor="middle" font-family="system-ui,-apple-system,sans-serif" font-size="11" fill="#4a5568" opacity="0.8">Drainage</text>
</svg>