<svg xmlns="http://www.w3.org/2000/svg" width="800" height="600" viewBox="0 0 800 600">
  <defs>
    <linearGradient id="bg2" x1="0%" y1="0%" x2="100%" y2="100%">
      <stop offset="0%" stop-color="#1a202c"/>
      <stop offset="50%" stop-color="#2d3748" stop-opacity="0.3"/>
      <stop offset="100%" stop-color="#1a202c"/>
    </linearGradient>
    <pattern id="grid2" width="40" height="40" patternUnits="userSpaceOnUse"><path d="M 40 0 L 0 0 0 40" fill="none" stroke="white" stroke-width="0.5" opacity="0.03"/></pattern>
  </defs>
  <rect width="100%" height="100%" fill="url(#bg2)"/>
  <rect width="100%" height="100%" fill="url(#grid2)"/>
  <rect x="723" y="125" width="95" height="245" rx="8" fill="#2d3748" opacity="0.08"/>
  <circle cx="185" cy="402" r="44" fill="#2d3748" opacity="0.12"/>
  <circle cx="446" cy="128" r="53" fill="#2d3748" opacity="0.11"/>
  <circle cx="658" cy="263" r="48" fill="#2d3748" opacity="0.14"/>
  <circle cx="699" cy="25" r="76" fill="#2d3748" opacity="0.08"/>
  <circle cx="765" cy="574" r="173" fill="#2d3748" opacity="0.12"/>
  <rect x="718" y="180" width="88" height="208" rx="8" fill="#2d3748" opacity="0.06"/>
  <circle cx="654" cy="480" r="32" fill="none" stroke="#2d3748" stroke-width="2" opacity="0.12"/>
  <circle cx="137" cy="429" r="48" fill="none" stroke="#2d3748" stroke-width="2" opacity="0.12"/>
  <circle cx="270" cy="405" r="46" fill="none" stroke="#2d3748" stroke-width="2" opacity="0.12"/>
  <rect x="0" y="0" width="800" height="8" fill="#2d3748" opacity="0.7"/>
  <circle cx="400" cy="260" r="60" fill="#2d3748" opacity="0.12"/>
  <circle cx="400" cy="260" r="35" fill="#2d3748" opacity="0.25"/>
  <text x="50%" y="335" text-anchor="middle" font-family="system-ui,-apple-system,sans-serif" font-size="28" font-weight="700" fill="white" opacity="0.9">Drainage Issue</text>
  <text x="50%" y="360" text-anchor="middle" font-family="system-ui,-apple-system,sans-serif" font-size="13" fill="white" opacity="0.5">Constituency #3 · Demo Image</text>
  <rect x="0" y="560" width="800" height="40" fill="black" opacity="0.25"/>
  <text x="50%" y="586" text-anchor="middle" font-family="system-ui,-apple-system,sans-serif" font-size="11" fill="white" opacity="0.5">Category: Drainage · MP Portal Demo</text>
  <rect x="660" y="16" width="124" height="28" rx="14" fill="#2d3748" opacity="0.2"/>
  <text x="722" y="34" text-anchor="middle" font-family="system-ui,-apple-system,sans-serif" font-size="11" fill="#2d3748" opacity="0.8">Drainage</text>
</svg>