<svg xmlns="http://www.w3.org/2000/svg" width="800" height="600" viewBox="0 0 800 600">
  <defs>
    <linearGradient id="bg0" x1="0%" y1="0%" x2="100%" y2="100%">
      <stop offset="0%" stop-color="#2c5282"/>
      <stop offset="50%" stop-color="#3182ce" stop-opacity="0.3"/>
      <stop offset="100%" stop-color="#2c5282"/>
    </linearGradient>
    <pattern id="grid0" width="40" height="40" patternUnits="userSpaceOnUse"><path d="M 40 0 L 0 0 0 40" fill="none" stroke="white" stroke-width="0.5" opacity="0.03"/></pattern>
  </defs>
  <rect width="100%" height="100%" fill="url(#bg0)"/>
  <rect width="100%" height="100%" fill="url(#grid0)"/>
  <circle cx="225" cy="100" r="129" fill="#3182ce" opacity="0.1"/>
  <circle cx="396" cy="494" r="95" fill="#3182ce" opacity="0.07"/>
  <circle cx="398" cy="522" r="76" fill="#3182ce" opacity="0.09"/>
  <rect x="654" y="62" width="172" height="224" rx="8" fill="#3182ce" opacity="0.06"/>
  <rect x="624" y="100" width="123" height="245" rx="8" fill="#3182ce" opacity="0.14"/>
  <circle cx="643" cy="158" r="149" fill="#3182ce" opacity="0.14"/>
  <rect x="268" y="488" width="221" height="136" rx="8" fill="#3182ce" opacity="0.13"/>
  <circle cx="469" cy="174" r="116" fill="#3182ce" opacity="0.13"/>
  <rect x="122" y="211" width="192" height="139" rx="8" fill="#3182ce" opacity="0.09"/>
  <circle cx="147" cy="361" r="51" fill="none" stroke="#3182ce" stroke-width="2" opacity="0.12"/>
  <circle cx="716" cy="396" r="77" fill="none" stroke="#3182ce" stroke-width="2" opacity="0.12"/>
  <circle cx="92" cy="448" r="36" fill="none" stroke="#3182ce" stroke-width="2" opacity="0.12"/>
  <circle cx="526" cy="465" r="60" fill="none" stroke="#3182ce" stroke-width="2" opacity="0.12"/>
  <circle cx="233" cy="104" r="74" fill="none" stroke="#3182ce" stroke-width="2" opacity="0.12"/>
  <rect x="0" y="0" width="800" height="8" fill="#3182ce" opacity="0.7"/>
  <circle cx="400" cy="260" r="60" fill="#3182ce" opacity="0.12"/>
  <circle cx="400" cy="260" r="35" fill="#3182ce" opacity="0.25"/>
  <text x="50%" y="335" text-anchor="middle" font-family="system-ui,-apple-system,sans-serif" font-size="23" font-weight="700" fill="white" opacity="0.9">School Issue</text>
  <text x="50%" y="360" text-anchor="middle" font-family="system-ui,-apple-system,sans-serif" font-size="13" fill="white" opacity="0.5">Constituency #1 · Demo Image</text>
  <rect x="0" y="560" width="800" height="40" fill="black" opacity="0.25"/>
  <text x="50%" y="586" text-anchor="middle" font-family="system-ui,-apple-system,sans-serif" font-size="11" fill="white" opacity="0.5">Category: Schools · MP Portal Demo</text>
  <rect x="660" y="16" width="124" height="28" rx="14" fill="#3182ce" opacity="0.2"/>
  <text x="722" y="34" text-anchor="middle" font-family="system-ui,-apple-system,sans-serif" font-size="11" fill="#3182ce" opacity="0.8">Schools</text>
</svg>