<svg xmlns="http://www.w3.org/2000/svg" width="800" height="600" viewBox="0 0 800 600">
  <defs>
    <linearGradient id="bg2" x1="0%" y1="0%" x2="100%" y2="100%">
      <stop offset="0%" stop-color="#1a365d"/>
      <stop offset="50%" stop-color="#2c5282" stop-opacity="0.3"/>
      <stop offset="100%" stop-color="#1a365d"/>
    </linearGradient>
    <pattern id="grid2" width="40" height="40" patternUnits="userSpaceOnUse"><path d="M 40 0 L 0 0 0 40" fill="none" stroke="white" stroke-width="0.5" opacity="0.03"/></pattern>
  </defs>
  <rect width="100%" height="100%" fill="url(#bg2)"/>
  <rect width="100%" height="100%" fill="url(#grid2)"/>
  <circle cx="91" cy="491" r="61" fill="#2c5282" opacity="0.11"/>
  <rect x="209" y="146" width="84" height="117" rx="8" fill="#2c5282" opacity="0.05"/>
  <circle cx="104" cy="172" r="135" fill="#2c5282" opacity="0.11"/>
  <circle cx="58" cy="226" r="143" fill="#2c5282" opacity="0.14"/>
  <rect x="170" y="485" width="88" height="161" rx="8" fill="#2c5282" opacity="0.14"/>
  <rect x="169" y="434" width="98" height="133" rx="8" fill="#2c5282" opacity="0.08"/>
  <circle cx="740" cy="107" r="69" fill="none" stroke="#2c5282" stroke-width="2" opacity="0.12"/>
  <circle cx="343" cy="400" r="58" fill="none" stroke="#2c5282" stroke-width="2" opacity="0.12"/>
  <circle cx="497" cy="262" r="58" fill="none" stroke="#2c5282" stroke-width="2" opacity="0.12"/>
  <circle cx="375" cy="538" r="26" fill="none" stroke="#2c5282" stroke-width="2" opacity="0.12"/>
  <circle cx="279" cy="497" r="42" fill="none" stroke="#2c5282" stroke-width="2" opacity="0.12"/>
  <rect x="0" y="0" width="800" height="8" fill="#2c5282" opacity="0.7"/>
  <circle cx="400" cy="260" r="60" fill="#2c5282" opacity="0.12"/>
  <circle cx="400" cy="260" r="35" fill="#2c5282" opacity="0.25"/>
  <text x="50%" y="335" text-anchor="middle" font-family="system-ui,-apple-system,sans-serif" font-size="24" font-weight="700" fill="white" opacity="0.9">School Issue</text>
  <text x="50%" y="360" text-anchor="middle" font-family="system-ui,-apple-system,sans-serif" font-size="13" fill="white" opacity="0.5">Constituency #3 · Demo Image</text>
  <rect x="0" y="560" width="800" height="40" fill="black" opacity="0.25"/>
  <text x="50%" y="586" text-anchor="middle" font-family="system-ui,-apple-system,sans-serif" font-size="11" fill="white" opacity="0.5">Category: Schools · MP Portal Demo</text>
  <rect x="660" y="16" width="124" height="28" rx="14" fill="#2c5282" opacity="0.2"/>
  <text x="722" y="34" text-anchor="middle" font-family="system-ui,-apple-system,sans-serif" font-size="11" fill="#2c5282" opacity="0.8">Schools</text>
</svg>