<svg xmlns="http://www.w3.org/2000/svg" width="800" height="600" viewBox="0 0 800 600">
  <defs>
    <linearGradient id="bg1" x1="0%" y1="0%" x2="100%" y2="100%">
      <stop offset="0%" stop-color="#3182ce"/>
      <stop offset="50%" stop-color="#1a365d" stop-opacity="0.3"/>
      <stop offset="100%" stop-color="#3182ce"/>
    </linearGradient>
    <pattern id="grid1" width="40" height="40" patternUnits="userSpaceOnUse"><path d="M 40 0 L 0 0 0 40" fill="none" stroke="white" stroke-width="0.5" opacity="0.03"/></pattern>
  </defs>
  <rect width="100%" height="100%" fill="url(#bg1)"/>
  <rect width="100%" height="100%" fill="url(#grid1)"/>
  <circle cx="494" cy="590" r="159" fill="#1a365d" opacity="0.12"/>
  <circle cx="679" cy="566" r="129" fill="#1a365d" opacity="0.11"/>
  <circle cx="183" cy="468" r="163" fill="#1a365d" opacity="0.13"/>
  <circle cx="501" cy="203" r="80" fill="#1a365d" opacity="0.1"/>
  <circle cx="51" cy="0" r="76" fill="#1a365d" opacity="0.14"/>
  <circle cx="445" cy="511" r="155" fill="#1a365d" opacity="0.08"/>
  <rect x="236" y="357" width="186" height="197" rx="8" fill="#1a365d" opacity="0.07"/>
  <rect x="182" y="367" width="98" height="69" rx="8" fill="#1a365d" opacity="0.12"/>
  <rect x="429" y="326" width="184" height="68" rx="8" fill="#1a365d" opacity="0.08"/>
  <circle cx="140" cy="468" r="50" fill="none" stroke="#1a365d" stroke-width="2" opacity="0.12"/>
  <circle cx="265" cy="481" r="57" fill="none" stroke="#1a365d" stroke-width="2" opacity="0.12"/>
  <circle cx="234" cy="226" r="56" fill="none" stroke="#1a365d" stroke-width="2" opacity="0.12"/>
  <circle cx="110" cy="482" r="24" fill="none" stroke="#1a365d" stroke-width="2" opacity="0.12"/>
  <circle cx="592" cy="476" r="46" fill="none" stroke="#1a365d" stroke-width="2" opacity="0.12"/>
  <circle cx="540" cy="323" r="21" fill="none" stroke="#1a365d" stroke-width="2" opacity="0.12"/>
  <rect x="0" y="0" width="800" height="8" fill="#1a365d" opacity="0.7"/>
  <circle cx="400" cy="260" r="60" fill="#1a365d" opacity="0.12"/>
  <circle cx="400" cy="260" r="35" fill="#1a365d" opacity="0.25"/>
  <text x="50%" y="335" text-anchor="middle" font-family="system-ui,-apple-system,sans-serif" font-size="24" font-weight="700" fill="white" opacity="0.9">School Issue</text>
  <text x="50%" y="360" text-anchor="middle" font-family="system-ui,-apple-system,sans-serif" font-size="13" fill="white" opacity="0.5">Constituency #2 · Demo Image</text>
  <rect x="0" y="560" width="800" height="40" fill="black" opacity="0.25"/>
  <text x="50%" y="586" text-anchor="middle" font-family="system-ui,-apple-system,sans-serif" font-size="11" fill="white" opacity="0.5">Category: Schools · MP Portal Demo</text>
  <rect x="660" y="16" width="124" height="28" rx="14" fill="#1a365d" opacity="0.2"/>
  <text x="722" y="34" text-anchor="middle" font-family="system-ui,-apple-system,sans-serif" font-size="11" fill="#1a365d" opacity="0.8">Schools</text>
</svg>