<svg xmlns="http://www.w3.org/2000/svg" width="800" height="600" viewBox="0 0 800 600">
  <defs>
    <linearGradient id="bg2" x1="0%" y1="0%" x2="100%" y2="100%">
      <stop offset="0%" stop-color="#1a4731"/>
      <stop offset="50%" stop-color="#276749" stop-opacity="0.3"/>
      <stop offset="100%" stop-color="#1a4731"/>
    </linearGradient>
    <pattern id="grid2" width="40" height="40" patternUnits="userSpaceOnUse"><path d="M 40 0 L 0 0 0 40" fill="none" stroke="white" stroke-width="0.5" opacity="0.03"/></pattern>
  </defs>
  <rect width="100%" height="100%" fill="url(#bg2)"/>
  <rect width="100%" height="100%" fill="url(#grid2)"/>
  <rect x="375" y="81" width="141" height="62" rx="8" fill="#276749" opacity="0.11"/>
  <rect x="200" y="395" width="120" height="226" rx="8" fill="#276749" opacity="0.11"/>
  <rect x="92" y="375" width="79" height="152" rx="8" fill="#276749" opacity="0.05"/>
  <rect x="405" y="258" width="224" height="115" rx="8" fill="#276749" opacity="0.09"/>
  <rect x="486" y="164" width="67" height="79" rx="8" fill="#276749" opacity="0.09"/>
  <circle cx="431" cy="545" r="63" fill="none" stroke="#276749" stroke-width="2" opacity="0.12"/>
  <circle cx="311" cy="280" r="48" fill="none" stroke="#276749" stroke-width="2" opacity="0.12"/>
  <circle cx="552" cy="257" r="21" fill="none" stroke="#276749" stroke-width="2" opacity="0.12"/>
  <circle cx="212" cy="496" r="74" fill="none" stroke="#276749" stroke-width="2" opacity="0.12"/>
  <circle cx="227" cy="397" r="25" fill="none" stroke="#276749" stroke-width="2" opacity="0.12"/>
  <rect x="0" y="0" width="800" height="8" fill="#276749" opacity="0.7"/>
  <circle cx="400" cy="260" r="60" fill="#276749" opacity="0.12"/>
  <circle cx="400" cy="260" r="35" fill="#276749" opacity="0.25"/>
  <text x="50%" y="335" text-anchor="middle" font-family="system-ui,-apple-system,sans-serif" font-size="26" font-weight="700" fill="white" opacity="0.9">Health Center</text>
  <text x="50%" y="360" text-anchor="middle" font-family="system-ui,-apple-system,sans-serif" font-size="13" fill="white" opacity="0.5">Constituency #3 · Demo Image</text>
  <rect x="0" y="560" width="800" height="40" fill="black" opacity="0.25"/>
  <text x="50%" y="586" text-anchor="middle" font-family="system-ui,-apple-system,sans-serif" font-size="11" fill="white" opacity="0.5">Category: Healthcare · MP Portal Demo</text>
  <rect x="660" y="16" width="124" height="28" rx="14" fill="#276749" opacity="0.2"/>
  <text x="722" y="34" text-anchor="middle" font-family="system-ui,-apple-system,sans-serif" font-size="11" fill="#276749" opacity="0.8">Healthcare</text>
</svg>