<svg xmlns="http://www.w3.org/2000/svg" width="800" height="600" viewBox="0 0 800 600">
  <defs>
    <linearGradient id="bg3" x1="0%" y1="0%" x2="100%" y2="100%">
      <stop offset="0%" stop-color="#c05621"/>
      <stop offset="50%" stop-color="#dd6b20" stop-opacity="0.3"/>
      <stop offset="100%" stop-color="#c05621"/>
    </linearGradient>
    <pattern id="grid3" width="40" height="40" patternUnits="userSpaceOnUse"><path d="M 40 0 L 0 0 0 40" fill="none" stroke="white" stroke-width="0.5" opacity="0.03"/></pattern>
  </defs>
  <rect width="100%" height="100%" fill="url(#bg3)"/>
  <rect width="100%" height="100%" fill="url(#grid3)"/>
  <circle cx="97" cy="165" r="57" fill="#dd6b20" opacity="0.14"/>
  <rect x="421" y="14" width="108" height="197" rx="8" fill="#dd6b20" opacity="0.1"/>
  <rect x="530" y="522" width="127" height="247" rx="8" fill="#dd6b20" opacity="0.1"/>
  <rect x="597" y="510" width="170" height="201" rx="8" fill="#dd6b20" opacity="0.12"/>
  <rect x="392" y="112" width="94" height="212" rx="8" fill="#dd6b20" opacity="0.14"/>
  <rect x="480" y="397" width="128" height="63" rx="8" fill="#dd6b20" opacity="0.09"/>
  <circle cx="425" cy="556" r="58" fill="#dd6b20" opacity="0.15"/>
  <circle cx="736" cy="376" r="134" fill="#dd6b20" opacity="0.09"/>
  <circle cx="184" cy="186" r="43" fill="none" stroke="#dd6b20" stroke-width="2" opacity="0.12"/>
  <circle cx="492" cy="411" r="60" fill="none" stroke="#dd6b20" stroke-width="2" opacity="0.12"/>
  <circle cx="647" cy="332" r="58" fill="none" stroke="#dd6b20" stroke-width="2" opacity="0.12"/>
  <circle cx="249" cy="474" r="49" fill="none" stroke="#dd6b20" stroke-width="2" opacity="0.12"/>
  <circle cx="532" cy="207" r="71" fill="none" stroke="#dd6b20" stroke-width="2" opacity="0.12"/>
  <rect x="0" y="0" width="800" height="8" fill="#dd6b20" opacity="0.7"/>
  <circle cx="400" cy="260" r="60" fill="#dd6b20" opacity="0.12"/>
  <circle cx="400" cy="260" r="35" fill="#dd6b20" opacity="0.25"/>
  <text x="50%" y="335" text-anchor="middle" font-family="system-ui,-apple-system,sans-serif" font-size="22" font-weight="700" fill="white" opacity="0.9">Street Light Out</text>
  <text x="50%" y="360" text-anchor="middle" font-family="system-ui,-apple-system,sans-serif" font-size="13" fill="white" opacity="0.5">Constituency #4 · Demo Image</text>
  <rect x="0" y="560" width="800" height="40" fill="black" opacity="0.25"/>
  <text x="50%" y="586" text-anchor="middle" font-family="system-ui,-apple-system,sans-serif" font-size="11" fill="white" opacity="0.5">Category: Streetlights · MP Portal Demo</text>
  <rect x="660" y="16" width="124" height="28" rx="14" fill="#dd6b20" opacity="0.2"/>
  <text x="722" y="34" text-anchor="middle" font-family="system-ui,-apple-system,sans-serif" font-size="11" fill="#dd6b20" opacity="0.8">Streetlights</text>
</svg>