<svg xmlns="http://www.w3.org/2000/svg" width="800" height="600" viewBox="0 0 800 600">
  <defs>
    <linearGradient id="bg0" x1="0%" y1="0%" x2="100%" y2="100%">
      <stop offset="0%" stop-color="#c05621"/>
      <stop offset="50%" stop-color="#dd6b20" stop-opacity="0.3"/>
      <stop offset="100%" stop-color="#c05621"/>
    </linearGradient>
    <pattern id="grid0" width="40" height="40" patternUnits="userSpaceOnUse"><path d="M 40 0 L 0 0 0 40" fill="none" stroke="white" stroke-width="0.5" opacity="0.03"/></pattern>
  </defs>
  <rect width="100%" height="100%" fill="url(#bg0)"/>
  <rect width="100%" height="100%" fill="url(#grid0)"/>
  <circle cx="791" cy="66" r="80" fill="#dd6b20" opacity="0.11"/>
  <rect x="355" y="40" width="114" height="228" rx="8" fill="#dd6b20" opacity="0.14"/>
  <rect x="548" y="436" width="99" height="133" rx="8" fill="#dd6b20" opacity="0.08"/>
  <rect x="39" y="9" width="173" height="68" rx="8" fill="#dd6b20" opacity="0.06"/>
  <rect x="740" y="449" width="213" height="109" rx="8" fill="#dd6b20" opacity="0.15"/>
  <rect x="224" y="398" width="159" height="226" rx="8" fill="#dd6b20" opacity="0.11"/>
  <circle cx="512" cy="278" r="50" fill="none" stroke="#dd6b20" stroke-width="2" opacity="0.12"/>
  <circle cx="407" cy="302" r="57" fill="none" stroke="#dd6b20" stroke-width="2" opacity="0.12"/>
  <circle cx="200" cy="224" r="62" fill="none" stroke="#dd6b20" stroke-width="2" opacity="0.12"/>
  <circle cx="725" cy="342" r="26" fill="none" stroke="#dd6b20" stroke-width="2" opacity="0.12"/>
  <circle cx="298" cy="136" r="21" fill="none" stroke="#dd6b20" stroke-width="2" opacity="0.12"/>
  <rect x="0" y="0" width="800" height="8" fill="#dd6b20" opacity="0.7"/>
  <circle cx="400" cy="260" r="60" fill="#dd6b20" opacity="0.12"/>
  <circle cx="400" cy="260" r="35" fill="#dd6b20" opacity="0.25"/>
  <text x="50%" y="335" text-anchor="middle" font-family="system-ui,-apple-system,sans-serif" font-size="23" font-weight="700" fill="white" opacity="0.9">Street Light Out</text>
  <text x="50%" y="360" text-anchor="middle" font-family="system-ui,-apple-system,sans-serif" font-size="13" fill="white" opacity="0.5">Constituency #1 · Demo Image</text>
  <rect x="0" y="560" width="800" height="40" fill="black" opacity="0.25"/>
  <text x="50%" y="586" text-anchor="middle" font-family="system-ui,-apple-system,sans-serif" font-size="11" fill="white" opacity="0.5">Category: Streetlights · MP Portal Demo</text>
  <rect x="660" y="16" width="124" height="28" rx="14" fill="#dd6b20" opacity="0.2"/>
  <text x="722" y="34" text-anchor="middle" font-family="system-ui,-apple-system,sans-serif" font-size="11" fill="#dd6b20" opacity="0.8">Streetlights</text>
</svg>