<svg xmlns="http://www.w3.org/2000/svg" width="800" height="600" viewBox="0 0 800 600">
  <defs>
    <linearGradient id="bg0" x1="0%" y1="0%" x2="100%" y2="100%">
      <stop offset="0%" stop-color="#276749"/>
      <stop offset="50%" stop-color="#38a169" stop-opacity="0.3"/>
      <stop offset="100%" stop-color="#276749"/>
    </linearGradient>
    <pattern id="grid0" width="40" height="40" patternUnits="userSpaceOnUse"><path d="M 40 0 L 0 0 0 40" fill="none" stroke="white" stroke-width="0.5" opacity="0.03"/></pattern>
  </defs>
  <rect width="100%" height="100%" fill="url(#bg0)"/>
  <rect width="100%" height="100%" fill="url(#grid0)"/>
  <circle cx="728" cy="476" r="64" fill="#38a169" opacity="0.12"/>
  <rect x="699" y="10" width="101" height="210" rx="8" fill="#38a169" opacity="0.07"/>
  <circle cx="624" cy="82" r="130" fill="#38a169" opacity="0.11"/>
  <circle cx="599" cy="208" r="144" fill="#38a169" opacity="0.09"/>
  <circle cx="710" cy="283" r="105" fill="#38a169" opacity="0.12"/>
  <rect x="268" y="78" width="119" height="249" rx="8" fill="#38a169" opacity="0.13"/>
  <rect x="140" y="147" width="162" height="212" rx="8" fill="#38a169" opacity="0.05"/>
  <circle cx="395" cy="376" r="73" fill="none" stroke="#38a169" stroke-width="2" opacity="0.12"/>
  <circle cx="576" cy="72" r="62" fill="none" stroke="#38a169" stroke-width="2" opacity="0.12"/>
  <circle cx="87" cy="67" r="59" fill="none" stroke="#38a169" stroke-width="2" opacity="0.12"/>
  <circle cx="53" cy="186" r="60" fill="none" stroke="#38a169" stroke-width="2" opacity="0.12"/>
  <rect x="0" y="0" width="800" height="8" fill="#38a169" opacity="0.7"/>
  <circle cx="400" cy="260" r="60" fill="#38a169" opacity="0.12"/>
  <circle cx="400" cy="260" r="35" fill="#38a169" opacity="0.25"/>
  <text x="50%" y="335" text-anchor="middle" font-family="system-ui,-apple-system,sans-serif" font-size="28" font-weight="700" fill="white" opacity="0.9">Health Center</text>
  <text x="50%" y="360" text-anchor="middle" font-family="system-ui,-apple-system,sans-serif" font-size="13" fill="white" opacity="0.5">Constituency #1 · Demo Image</text>
  <rect x="0" y="560" width="800" height="40" fill="black" opacity="0.25"/>
  <text x="50%" y="586" text-anchor="middle" font-family="system-ui,-apple-system,sans-serif" font-size="11" fill="white" opacity="0.5">Category: Healthcare · MP Portal Demo</text>
  <rect x="660" y="16" width="124" height="28" rx="14" fill="#38a169" opacity="0.2"/>
  <text x="722" y="34" text-anchor="middle" font-family="system-ui,-apple-system,sans-serif" font-size="11" fill="#38a169" opacity="0.8">Healthcare</text>
</svg>