<svg xmlns="http://www.w3.org/2000/svg" width="800" height="600" viewBox="0 0 800 600">
  <defs>
    <linearGradient id="bg1" x1="0%" y1="0%" x2="100%" y2="100%">
      <stop offset="0%" stop-color="#38a169"/>
      <stop offset="50%" stop-color="#1a4731" stop-opacity="0.3"/>
      <stop offset="100%" stop-color="#38a169"/>
    </linearGradient>
    <pattern id="grid1" width="40" height="40" patternUnits="userSpaceOnUse"><path d="M 40 0 L 0 0 0 40" fill="none" stroke="white" stroke-width="0.5" opacity="0.03"/></pattern>
  </defs>
  <rect width="100%" height="100%" fill="url(#bg1)"/>
  <rect width="100%" height="100%" fill="url(#grid1)"/>
  <rect x="748" y="266" width="187" height="194" rx="8" fill="#1a4731" opacity="0.06"/>
  <circle cx="406" cy="65" r="168" fill="#1a4731" opacity="0.06"/>
  <rect x="194" y="545" width="229" height="204" rx="8" fill="#1a4731" opacity="0.09"/>
  <circle cx="696" cy="489" r="152" fill="#1a4731" opacity="0.1"/>
  <rect x="620" y="10" width="124" height="155" rx="8" fill="#1a4731" opacity="0.07"/>
  <circle cx="582" cy="355" r="51" fill="none" stroke="#1a4731" stroke-width="2" opacity="0.12"/>
  <circle cx="111" cy="307" r="61" fill="none" stroke="#1a4731" stroke-width="2" opacity="0.12"/>
  <circle cx="404" cy="445" r="39" fill="none" stroke="#1a4731" stroke-width="2" opacity="0.12"/>
  <rect x="0" y="0" width="800" height="8" fill="#1a4731" opacity="0.7"/>
  <circle cx="400" cy="260" r="60" fill="#1a4731" opacity="0.12"/>
  <circle cx="400" cy="260" r="35" fill="#1a4731" opacity="0.25"/>
  <text x="50%" y="335" text-anchor="middle" font-family="system-ui,-apple-system,sans-serif" font-size="24" font-weight="700" fill="white" opacity="0.9">Health Center</text>
  <text x="50%" y="360" text-anchor="middle" font-family="system-ui,-apple-system,sans-serif" font-size="13" fill="white" opacity="0.5">Constituency #2 · Demo Image</text>
  <rect x="0" y="560" width="800" height="40" fill="black" opacity="0.25"/>
  <text x="50%" y="586" text-anchor="middle" font-family="system-ui,-apple-system,sans-serif" font-size="11" fill="white" opacity="0.5">Category: Healthcare · MP Portal Demo</text>
  <rect x="660" y="16" width="124" height="28" rx="14" fill="#1a4731" opacity="0.2"/>
  <text x="722" y="34" text-anchor="middle" font-family="system-ui,-apple-system,sans-serif" font-size="11" fill="#1a4731" opacity="0.8">Healthcare</text>
</svg>