<svg xmlns="http://www.w3.org/2000/svg" width="800" height="600" viewBox="0 0 800 600">
  <defs>
    <linearGradient id="bg3" x1="0%" y1="0%" x2="100%" y2="100%">
      <stop offset="0%" stop-color="#276749"/>
      <stop offset="50%" stop-color="#38a169" stop-opacity="0.3"/>
      <stop offset="100%" stop-color="#276749"/>
    </linearGradient>
    <pattern id="grid3" width="40" height="40" patternUnits="userSpaceOnUse"><path d="M 40 0 L 0 0 0 40" fill="none" stroke="white" stroke-width="0.5" opacity="0.03"/></pattern>
  </defs>
  <rect width="100%" height="100%" fill="url(#bg3)"/>
  <rect width="100%" height="100%" fill="url(#grid3)"/>
  <rect x="241" y="443" width="185" height="208" rx="8" fill="#38a169" opacity="0.12"/>
  <rect x="87" y="539" width="179" height="85" rx="8" fill="#38a169" opacity="0.13"/>
  <rect x="424" y="473" width="175" height="178" rx="8" fill="#38a169" opacity="0.11"/>
  <circle cx="229" cy="507" r="61" fill="#38a169" opacity="0.11"/>
  <circle cx="573" cy="320" r="166" fill="#38a169" opacity="0.05"/>
  <rect x="668" y="268" width="172" height="80" rx="8" fill="#38a169" opacity="0.08"/>
  <rect x="292" y="384" width="228" height="149" rx="8" fill="#38a169" opacity="0.15"/>
  <rect x="680" y="273" width="134" height="234" rx="8" fill="#38a169" opacity="0.07"/>
  <circle cx="225" cy="158" r="107" fill="#38a169" opacity="0.14"/>
  <circle cx="152" cy="264" r="67" fill="none" stroke="#38a169" stroke-width="2" opacity="0.12"/>
  <circle cx="241" cy="254" r="71" fill="none" stroke="#38a169" stroke-width="2" opacity="0.12"/>
  <circle cx="613" cy="79" r="47" fill="none" stroke="#38a169" stroke-width="2" opacity="0.12"/>
  <circle cx="50" cy="430" r="36" fill="none" stroke="#38a169" stroke-width="2" opacity="0.12"/>
  <circle cx="188" cy="238" r="20" fill="none" stroke="#38a169" stroke-width="2" opacity="0.12"/>
  <circle cx="391" cy="360" r="67" fill="none" stroke="#38a169" stroke-width="2" opacity="0.12"/>
  <rect x="0" y="0" width="800" height="8" fill="#38a169" opacity="0.7"/>
  <circle cx="400" cy="260" r="60" fill="#38a169" opacity="0.12"/>
  <circle cx="400" cy="260" r="35" fill="#38a169" opacity="0.25"/>
  <text x="50%" y="335" text-anchor="middle" font-family="system-ui,-apple-system,sans-serif" font-size="24" font-weight="700" fill="white" opacity="0.9">Health Center</text>
  <text x="50%" y="360" text-anchor="middle" font-family="system-ui,-apple-system,sans-serif" font-size="13" fill="white" opacity="0.5">Constituency #4 · Demo Image</text>
  <rect x="0" y="560" width="800" height="40" fill="black" opacity="0.25"/>
  <text x="50%" y="586" text-anchor="middle" font-family="system-ui,-apple-system,sans-serif" font-size="11" fill="white" opacity="0.5">Category: Healthcare · MP Portal Demo</text>
  <rect x="660" y="16" width="124" height="28" rx="14" fill="#38a169" opacity="0.2"/>
  <text x="722" y="34" text-anchor="middle" font-family="system-ui,-apple-system,sans-serif" font-size="11" fill="#38a169" opacity="0.8">Healthcare</text>
</svg>