<svg xmlns="http://www.w3.org/2000/svg" width="800" height="600" viewBox="0 0 800 600">
  <defs>
    <linearGradient id="bg2" x1="0%" y1="0%" x2="100%" y2="100%">
      <stop offset="0%" stop-color="#422006"/>
      <stop offset="50%" stop-color="#744210" stop-opacity="0.3"/>
      <stop offset="100%" stop-color="#422006"/>
    </linearGradient>
    <pattern id="grid2" width="40" height="40" patternUnits="userSpaceOnUse"><path d="M 40 0 L 0 0 0 40" fill="none" stroke="white" stroke-width="0.5" opacity="0.03"/></pattern>
  </defs>
  <rect width="100%" height="100%" fill="url(#bg2)"/>
  <rect width="100%" height="100%" fill="url(#grid2)"/>
  <circle cx="62" cy="492" r="161" fill="#744210" opacity="0.15"/>
  <circle cx="591" cy="514" r="112" fill="#744210" opacity="0.11"/>
  <circle cx="363" cy="41" r="101" fill="#744210" opacity="0.1"/>
  <rect x="572" y="74" width="247" height="210" rx="8" fill="#744210" opacity="0.07"/>
  <circle cx="563" cy="586" r="115" fill="#744210" opacity="0.1"/>
  <rect x="151" y="110" width="119" height="64" rx="8" fill="#744210" opacity="0.13"/>
  <circle cx="268" cy="25" r="108" fill="#744210" opacity="0.06"/>
  <circle cx="401" cy="266" r="64" fill="none" stroke="#744210" stroke-width="2" opacity="0.12"/>
  <circle cx="697" cy="323" r="50" fill="none" stroke="#744210" stroke-width="2" opacity="0.12"/>
  <circle cx="657" cy="404" r="54" fill="none" stroke="#744210" stroke-width="2" opacity="0.12"/>
  <circle cx="574" cy="303" r="33" fill="none" stroke="#744210" stroke-width="2" opacity="0.12"/>
  <rect x="0" y="0" width="800" height="8" fill="#744210" opacity="0.7"/>
  <circle cx="400" cy="260" r="60" fill="#744210" opacity="0.12"/>
  <circle cx="400" cy="260" r="35" fill="#744210" opacity="0.25"/>
  <text x="50%" y="335" text-anchor="middle" font-family="system-ui,-apple-system,sans-serif" font-size="26" font-weight="700" fill="white" opacity="0.9">Traffic Problem</text>
  <text x="50%" y="360" text-anchor="middle" font-family="system-ui,-apple-system,sans-serif" font-size="13" fill="white" opacity="0.5">Constituency #3 · Demo Image</text>
  <rect x="0" y="560" width="800" height="40" fill="black" opacity="0.25"/>
  <text x="50%" y="586" text-anchor="middle" font-family="system-ui,-apple-system,sans-serif" font-size="11" fill="white" opacity="0.5">Category: Traffic · MP Portal Demo</text>
  <rect x="660" y="16" width="124" height="28" rx="14" fill="#744210" opacity="0.2"/>
  <text x="722" y="34" text-anchor="middle" font-family="system-ui,-apple-system,sans-serif" font-size="11" fill="#744210" opacity="0.8">Traffic</text>
</svg>