<svg xmlns="http://www.w3.org/2000/svg" width="800" height="600" viewBox="0 0 800 600">
  <defs>
    <linearGradient id="bg3" x1="0%" y1="0%" x2="100%" y2="100%">
      <stop offset="0%" stop-color="#744210"/>
      <stop offset="50%" stop-color="#975a16" stop-opacity="0.3"/>
      <stop offset="100%" stop-color="#744210"/>
    </linearGradient>
    <pattern id="grid3" width="40" height="40" patternUnits="userSpaceOnUse"><path d="M 40 0 L 0 0 0 40" fill="none" stroke="white" stroke-width="0.5" opacity="0.03"/></pattern>
  </defs>
  <rect width="100%" height="100%" fill="url(#bg3)"/>
  <rect width="100%" height="100%" fill="url(#grid3)"/>
  <rect x="75" y="72" width="60" height="203" rx="8" fill="#975a16" opacity="0.07"/>
  <circle cx="440" cy="242" r="103" fill="#975a16" opacity="0.07"/>
  <rect x="167" y="234" width="95" height="231" rx="8" fill="#975a16" opacity="0.11"/>
  <circle cx="329" cy="543" r="126" fill="#975a16" opacity="0.14"/>
  <circle cx="456" cy="334" r="125" fill="#975a16" opacity="0.11"/>
  <rect x="542" y="427" width="214" height="168" rx="8" fill="#975a16" opacity="0.11"/>
  <circle cx="573" cy="478" r="61" fill="none" stroke="#975a16" stroke-width="2" opacity="0.12"/>
  <circle cx="659" cy="492" r="61" fill="none" stroke="#975a16" stroke-width="2" opacity="0.12"/>
  <circle cx="248" cy="508" r="75" fill="none" stroke="#975a16" stroke-width="2" opacity="0.12"/>
  <circle cx="700" cy="288" r="79" fill="none" stroke="#975a16" stroke-width="2" opacity="0.12"/>
  <circle cx="563" cy="76" r="25" fill="none" stroke="#975a16" stroke-width="2" opacity="0.12"/>
  <circle cx="320" cy="155" r="44" fill="none" stroke="#975a16" stroke-width="2" opacity="0.12"/>
  <rect x="0" y="0" width="800" height="8" fill="#975a16" opacity="0.7"/>
  <circle cx="400" cy="260" r="60" fill="#975a16" opacity="0.12"/>
  <circle cx="400" cy="260" r="35" fill="#975a16" opacity="0.25"/>
  <text x="50%" y="335" text-anchor="middle" font-family="system-ui,-apple-system,sans-serif" font-size="23" font-weight="700" fill="white" opacity="0.9">Traffic Problem</text>
  <text x="50%" y="360" text-anchor="middle" font-family="system-ui,-apple-system,sans-serif" font-size="13" fill="white" opacity="0.5">Constituency #4 · Demo Image</text>
  <rect x="0" y="560" width="800" height="40" fill="black" opacity="0.25"/>
  <text x="50%" y="586" text-anchor="middle" font-family="system-ui,-apple-system,sans-serif" font-size="11" fill="white" opacity="0.5">Category: Traffic · MP Portal Demo</text>
  <rect x="660" y="16" width="124" height="28" rx="14" fill="#975a16" opacity="0.2"/>
  <text x="722" y="34" text-anchor="middle" font-family="system-ui,-apple-system,sans-serif" font-size="11" fill="#975a16" opacity="0.8">Traffic</text>
</svg>