<svg xmlns="http://www.w3.org/2000/svg" width="800" height="600" viewBox="0 0 800 600">
  <defs>
    <linearGradient id="bg1" x1="0%" y1="0%" x2="100%" y2="100%">
      <stop offset="0%" stop-color="#975a16"/>
      <stop offset="50%" stop-color="#422006" stop-opacity="0.3"/>
      <stop offset="100%" stop-color="#975a16"/>
    </linearGradient>
    <pattern id="grid1" width="40" height="40" patternUnits="userSpaceOnUse"><path d="M 40 0 L 0 0 0 40" fill="none" stroke="white" stroke-width="0.5" opacity="0.03"/></pattern>
  </defs>
  <rect width="100%" height="100%" fill="url(#bg1)"/>
  <rect width="100%" height="100%" fill="url(#grid1)"/>
  <circle cx="420" cy="299" r="81" fill="#422006" opacity="0.13"/>
  <circle cx="118" cy="512" r="170" fill="#422006" opacity="0.09"/>
  <circle cx="425" cy="28" r="42" fill="#422006" opacity="0.11"/>
  <rect x="557" y="215" width="241" height="184" rx="8" fill="#422006" opacity="0.07"/>
  <rect x="711" y="194" width="118" height="132" rx="8" fill="#422006" opacity="0.11"/>
  <circle cx="262" cy="308" r="149" fill="#422006" opacity="0.08"/>
  <rect x="5" y="147" width="178" height="239" rx="8" fill="#422006" opacity="0.05"/>
  <circle cx="516" cy="481" r="122" fill="#422006" opacity="0.05"/>
  <circle cx="520" cy="199" r="58" fill="none" stroke="#422006" stroke-width="2" opacity="0.12"/>
  <circle cx="378" cy="443" r="34" fill="none" stroke="#422006" stroke-width="2" opacity="0.12"/>
  <circle cx="584" cy="147" r="80" fill="none" stroke="#422006" stroke-width="2" opacity="0.12"/>
  <circle cx="564" cy="390" r="66" fill="none" stroke="#422006" stroke-width="2" opacity="0.12"/>
  <circle cx="502" cy="90" r="50" fill="none" stroke="#422006" stroke-width="2" opacity="0.12"/>
  <rect x="0" y="0" width="800" height="8" fill="#422006" opacity="0.7"/>
  <circle cx="400" cy="260" r="60" fill="#422006" opacity="0.12"/>
  <circle cx="400" cy="260" r="35" fill="#422006" opacity="0.25"/>
  <text x="50%" y="335" text-anchor="middle" font-family="system-ui,-apple-system,sans-serif" font-size="23" font-weight="700" fill="white" opacity="0.9">Traffic Problem</text>
  <text x="50%" y="360" text-anchor="middle" font-family="system-ui,-apple-system,sans-serif" font-size="13" fill="white" opacity="0.5">Constituency #2 · Demo Image</text>
  <rect x="0" y="560" width="800" height="40" fill="black" opacity="0.25"/>
  <text x="50%" y="586" text-anchor="middle" font-family="system-ui,-apple-system,sans-serif" font-size="11" fill="white" opacity="0.5">Category: Traffic · MP Portal Demo</text>
  <rect x="660" y="16" width="124" height="28" rx="14" fill="#422006" opacity="0.2"/>
  <text x="722" y="34" text-anchor="middle" font-family="system-ui,-apple-system,sans-serif" font-size="11" fill="#422006" opacity="0.8">Traffic</text>
</svg>