<svg xmlns="http://www.w3.org/2000/svg" width="800" height="600" viewBox="0 0 800 600">
  <defs>
    <linearGradient id="bg1" x1="0%" y1="0%" x2="100%" y2="100%">
      <stop offset="0%" stop-color="#2d3748"/>
      <stop offset="50%" stop-color="#000000" stop-opacity="0.3"/>
      <stop offset="100%" stop-color="#2d3748"/>
    </linearGradient>
    <pattern id="grid1" width="40" height="40" patternUnits="userSpaceOnUse"><path d="M 40 0 L 0 0 0 40" fill="none" stroke="white" stroke-width="0.5" opacity="0.03"/></pattern>
  </defs>
  <rect width="100%" height="100%" fill="url(#bg1)"/>
  <rect width="100%" height="100%" fill="url(#grid1)"/>
  <circle cx="6" cy="429" r="141" fill="#000000" opacity="0.06"/>
  <circle cx="699" cy="47" r="164" fill="#000000" opacity="0.13"/>
  <circle cx="329" cy="574" r="121" fill="#000000" opacity="0.06"/>
  <circle cx="487" cy="377" r="178" fill="#000000" opacity="0.15"/>
  <rect x="233" y="388" width="195" height="131" rx="8" fill="#000000" opacity="0.09"/>
  <rect x="102" y="485" width="144" height="175" rx="8" fill="#000000" opacity="0.06"/>
  <circle cx="179" cy="360" r="145" fill="#000000" opacity="0.12"/>
  <circle cx="192" cy="125" r="147" fill="#000000" opacity="0.06"/>
  <rect x="183" y="299" width="196" height="77" rx="8" fill="#000000" opacity="0.15"/>
  <circle cx="732" cy="55" r="24" fill="none" stroke="#000000" stroke-width="2" opacity="0.12"/>
  <circle cx="395" cy="483" r="27" fill="none" stroke="#000000" stroke-width="2" opacity="0.12"/>
  <circle cx="537" cy="432" r="32" fill="none" stroke="#000000" stroke-width="2" opacity="0.12"/>
  <circle cx="383" cy="373" r="59" fill="none" stroke="#000000" stroke-width="2" opacity="0.12"/>
  <circle cx="230" cy="400" r="34" fill="none" stroke="#000000" stroke-width="2" opacity="0.12"/>
  <rect x="0" y="0" width="800" height="8" fill="#000000" opacity="0.7"/>
  <circle cx="400" cy="260" r="60" fill="#000000" opacity="0.12"/>
  <circle cx="400" cy="260" r="35" fill="#000000" opacity="0.25"/>
  <text x="50%" y="335" text-anchor="middle" font-family="system-ui,-apple-system,sans-serif" font-size="25" font-weight="700" fill="white" opacity="0.9">Power Outage</text>
  <text x="50%" y="360" text-anchor="middle" font-family="system-ui,-apple-system,sans-serif" font-size="13" fill="white" opacity="0.5">Constituency #2 · Demo Image</text>
  <rect x="0" y="560" width="800" height="40" fill="black" opacity="0.25"/>
  <text x="50%" y="586" text-anchor="middle" font-family="system-ui,-apple-system,sans-serif" font-size="11" fill="white" opacity="0.5">Category: Electricity · MP Portal Demo</text>
  <rect x="660" y="16" width="124" height="28" rx="14" fill="#000000" opacity="0.2"/>
  <text x="722" y="34" text-anchor="middle" font-family="system-ui,-apple-system,sans-serif" font-size="11" fill="#000000" opacity="0.8">Electricity</text>
</svg>