<svg xmlns="http://www.w3.org/2000/svg" width="800" height="600" viewBox="0 0 800 600">
  <defs>
    <linearGradient id="bg0" x1="0%" y1="0%" x2="100%" y2="100%">
      <stop offset="0%" stop-color="#1a202c"/>
      <stop offset="50%" stop-color="#2d3748" stop-opacity="0.3"/>
      <stop offset="100%" stop-color="#1a202c"/>
    </linearGradient>
    <pattern id="grid0" width="40" height="40" patternUnits="userSpaceOnUse"><path d="M 40 0 L 0 0 0 40" fill="none" stroke="white" stroke-width="0.5" opacity="0.03"/></pattern>
  </defs>
  <rect width="100%" height="100%" fill="url(#bg0)"/>
  <rect width="100%" height="100%" fill="url(#grid0)"/>
  <circle cx="39" cy="327" r="146" fill="#2d3748" opacity="0.13"/>
  <rect x="568" y="365" width="201" height="220" rx="8" fill="#2d3748" opacity="0.11"/>
  <rect x="362" y="27" width="113" height="195" rx="8" fill="#2d3748" opacity="0.12"/>
  <circle cx="216" cy="171" r="67" fill="#2d3748" opacity="0.1"/>
  <rect x="562" y="100" width="123" height="180" rx="8" fill="#2d3748" opacity="0.12"/>
  <rect x="282" y="176" width="135" height="66" rx="8" fill="#2d3748" opacity="0.11"/>
  <rect x="344" y="500" width="185" height="200" rx="8" fill="#2d3748" opacity="0.09"/>
  <circle cx="381" cy="407" r="58" fill="none" stroke="#2d3748" stroke-width="2" opacity="0.12"/>
  <circle cx="464" cy="220" r="73" fill="none" stroke="#2d3748" stroke-width="2" opacity="0.12"/>
  <circle cx="621" cy="525" r="32" fill="none" stroke="#2d3748" stroke-width="2" opacity="0.12"/>
  <circle cx="63" cy="415" r="22" fill="none" stroke="#2d3748" stroke-width="2" opacity="0.12"/>
  <circle cx="571" cy="545" r="62" fill="none" stroke="#2d3748" stroke-width="2" opacity="0.12"/>
  <rect x="0" y="0" width="800" height="8" fill="#2d3748" opacity="0.7"/>
  <circle cx="400" cy="260" r="60" fill="#2d3748" opacity="0.12"/>
  <circle cx="400" cy="260" r="35" fill="#2d3748" opacity="0.25"/>
  <text x="50%" y="335" text-anchor="middle" font-family="system-ui,-apple-system,sans-serif" font-size="24" font-weight="700" fill="white" opacity="0.9">Power Outage</text>
  <text x="50%" y="360" text-anchor="middle" font-family="system-ui,-apple-system,sans-serif" font-size="13" fill="white" opacity="0.5">Constituency #1 · Demo Image</text>
  <rect x="0" y="560" width="800" height="40" fill="black" opacity="0.25"/>
  <text x="50%" y="586" text-anchor="middle" font-family="system-ui,-apple-system,sans-serif" font-size="11" fill="white" opacity="0.5">Category: Electricity · MP Portal Demo</text>
  <rect x="660" y="16" width="124" height="28" rx="14" fill="#2d3748" opacity="0.2"/>
  <text x="722" y="34" text-anchor="middle" font-family="system-ui,-apple-system,sans-serif" font-size="11" fill="#2d3748" opacity="0.8">Electricity</text>
</svg>