<svg xmlns="http://www.w3.org/2000/svg" width="800" height="600" viewBox="0 0 800 600">
  <defs>
    <linearGradient id="bg2" x1="0%" y1="0%" x2="100%" y2="100%">
      <stop offset="0%" stop-color="#000000"/>
      <stop offset="50%" stop-color="#1a202c" stop-opacity="0.3"/>
      <stop offset="100%" stop-color="#000000"/>
    </linearGradient>
    <pattern id="grid2" width="40" height="40" patternUnits="userSpaceOnUse"><path d="M 40 0 L 0 0 0 40" fill="none" stroke="white" stroke-width="0.5" opacity="0.03"/></pattern>
  </defs>
  <rect width="100%" height="100%" fill="url(#bg2)"/>
  <rect width="100%" height="100%" fill="url(#grid2)"/>
  <rect x="606" y="193" width="250" height="239" rx="8" fill="#1a202c" opacity="0.1"/>
  <circle cx="521" cy="218" r="137" fill="#1a202c" opacity="0.07"/>
  <rect x="712" y="60" width="100" height="128" rx="8" fill="#1a202c" opacity="0.13"/>
  <circle cx="563" cy="156" r="165" fill="#1a202c" opacity="0.11"/>
  <circle cx="4" cy="264" r="100" fill="#1a202c" opacity="0.1"/>
  <rect x="257" y="542" width="196" height="130" rx="8" fill="#1a202c" opacity="0.15"/>
  <rect x="177" y="211" width="142" height="206" rx="8" fill="#1a202c" opacity="0.14"/>
  <circle cx="249" cy="482" r="73" fill="none" stroke="#1a202c" stroke-width="2" opacity="0.12"/>
  <circle cx="416" cy="171" r="61" fill="none" stroke="#1a202c" stroke-width="2" opacity="0.12"/>
  <circle cx="741" cy="140" r="39" fill="none" stroke="#1a202c" stroke-width="2" opacity="0.12"/>
  <circle cx="744" cy="518" r="45" fill="none" stroke="#1a202c" stroke-width="2" opacity="0.12"/>
  <rect x="0" y="0" width="800" height="8" fill="#1a202c" opacity="0.7"/>
  <circle cx="400" cy="260" r="60" fill="#1a202c" opacity="0.12"/>
  <circle cx="400" cy="260" r="35" fill="#1a202c" opacity="0.25"/>
  <text x="50%" y="335" text-anchor="middle" font-family="system-ui,-apple-system,sans-serif" font-size="23" font-weight="700" fill="white" opacity="0.9">Power Outage</text>
  <text x="50%" y="360" text-anchor="middle" font-family="system-ui,-apple-system,sans-serif" font-size="13" fill="white" opacity="0.5">Constituency #3 · Demo Image</text>
  <rect x="0" y="560" width="800" height="40" fill="black" opacity="0.25"/>
  <text x="50%" y="586" text-anchor="middle" font-family="system-ui,-apple-system,sans-serif" font-size="11" fill="white" opacity="0.5">Category: Electricity · MP Portal Demo</text>
  <rect x="660" y="16" width="124" height="28" rx="14" fill="#1a202c" opacity="0.2"/>
  <text x="722" y="34" text-anchor="middle" font-family="system-ui,-apple-system,sans-serif" font-size="11" fill="#1a202c" opacity="0.8">Electricity</text>
</svg>