<svg xmlns="http://www.w3.org/2000/svg" width="800" height="600" viewBox="0 0 800 600">
  <defs>
    <linearGradient id="bg3" x1="0%" y1="0%" x2="100%" y2="100%">
      <stop offset="0%" stop-color="#553c9a"/>
      <stop offset="50%" stop-color="#6b46c1" stop-opacity="0.3"/>
      <stop offset="100%" stop-color="#553c9a"/>
    </linearGradient>
    <pattern id="grid3" width="40" height="40" patternUnits="userSpaceOnUse"><path d="M 40 0 L 0 0 0 40" fill="none" stroke="white" stroke-width="0.5" opacity="0.03"/></pattern>
  </defs>
  <rect width="100%" height="100%" fill="url(#bg3)"/>
  <rect width="100%" height="100%" fill="url(#grid3)"/>
  <circle cx="703" cy="420" r="140" fill="#6b46c1" opacity="0.12"/>
  <rect x="184" y="309" width="203" height="154" rx="8" fill="#6b46c1" opacity="0.06"/>
  <circle cx="112" cy="449" r="99" fill="#6b46c1" opacity="0.14"/>
  <circle cx="328" cy="33" r="92" fill="#6b46c1" opacity="0.11"/>
  <rect x="123" y="95" width="189" height="76" rx="8" fill="#6b46c1" opacity="0.1"/>
  <circle cx="272" cy="313" r="177" fill="#6b46c1" opacity="0.09"/>
  <rect x="515" y="478" width="183" height="189" rx="8" fill="#6b46c1" opacity="0.09"/>
  <circle cx="599" cy="338" r="125" fill="#6b46c1" opacity="0.12"/>
  <circle cx="318" cy="161" r="69" fill="none" stroke="#6b46c1" stroke-width="2" opacity="0.12"/>
  <circle cx="297" cy="148" r="42" fill="none" stroke="#6b46c1" stroke-width="2" opacity="0.12"/>
  <circle cx="420" cy="374" r="58" fill="none" stroke="#6b46c1" stroke-width="2" opacity="0.12"/>
  <rect x="0" y="0" width="800" height="8" fill="#6b46c1" opacity="0.7"/>
  <circle cx="400" cy="260" r="60" fill="#6b46c1" opacity="0.12"/>
  <circle cx="400" cy="260" r="35" fill="#6b46c1" opacity="0.25"/>
  <text x="50%" y="335" text-anchor="middle" font-family="system-ui,-apple-system,sans-serif" font-size="23" font-weight="700" fill="white" opacity="0.9">Garbage Dump</text>
  <text x="50%" y="360" text-anchor="middle" font-family="system-ui,-apple-system,sans-serif" font-size="13" fill="white" opacity="0.5">Constituency #4 · Demo Image</text>
  <rect x="0" y="560" width="800" height="40" fill="black" opacity="0.25"/>
  <text x="50%" y="586" text-anchor="middle" font-family="system-ui,-apple-system,sans-serif" font-size="11" fill="white" opacity="0.5">Category: Garbage · MP Portal Demo</text>
  <rect x="660" y="16" width="124" height="28" rx="14" fill="#6b46c1" opacity="0.2"/>
  <text x="722" y="34" text-anchor="middle" font-family="system-ui,-apple-system,sans-serif" font-size="11" fill="#6b46c1" opacity="0.8">Garbage</text>
</svg>