<svg xmlns="http://www.w3.org/2000/svg" width="800" height="600" viewBox="0 0 800 600">
  <defs>
    <linearGradient id="bg2" x1="0%" y1="0%" x2="100%" y2="100%">
      <stop offset="0%" stop-color="#322659"/>
      <stop offset="50%" stop-color="#553c9a" stop-opacity="0.3"/>
      <stop offset="100%" stop-color="#322659"/>
    </linearGradient>
    <pattern id="grid2" width="40" height="40" patternUnits="userSpaceOnUse"><path d="M 40 0 L 0 0 0 40" fill="none" stroke="white" stroke-width="0.5" opacity="0.03"/></pattern>
  </defs>
  <rect width="100%" height="100%" fill="url(#bg2)"/>
  <rect width="100%" height="100%" fill="url(#grid2)"/>
  <rect x="714" y="340" width="217" height="225" rx="8" fill="#553c9a" opacity="0.05"/>
  <rect x="673" y="269" width="197" height="98" rx="8" fill="#553c9a" opacity="0.14"/>
  <circle cx="390" cy="365" r="139" fill="#553c9a" opacity="0.13"/>
  <rect x="663" y="525" width="145" height="102" rx="8" fill="#553c9a" opacity="0.11"/>
  <rect x="545" y="242" width="184" height="117" rx="8" fill="#553c9a" opacity="0.06"/>
  <rect x="629" y="434" width="249" height="133" rx="8" fill="#553c9a" opacity="0.12"/>
  <circle cx="697" cy="14" r="74" fill="#553c9a" opacity="0.12"/>
  <rect x="340" y="266" width="122" height="198" rx="8" fill="#553c9a" opacity="0.11"/>
  <circle cx="361" cy="481" r="153" fill="#553c9a" opacity="0.11"/>
  <rect x="50" y="1" width="139" height="130" rx="8" fill="#553c9a" opacity="0.08"/>
  <circle cx="61" cy="549" r="26" fill="none" stroke="#553c9a" stroke-width="2" opacity="0.12"/>
  <circle cx="405" cy="182" r="53" fill="none" stroke="#553c9a" stroke-width="2" opacity="0.12"/>
  <circle cx="215" cy="390" r="21" fill="none" stroke="#553c9a" stroke-width="2" opacity="0.12"/>
  <circle cx="418" cy="201" r="52" fill="none" stroke="#553c9a" stroke-width="2" opacity="0.12"/>
  <circle cx="257" cy="227" r="42" fill="none" stroke="#553c9a" stroke-width="2" opacity="0.12"/>
  <rect x="0" y="0" width="800" height="8" fill="#553c9a" opacity="0.7"/>
  <circle cx="400" cy="260" r="60" fill="#553c9a" opacity="0.12"/>
  <circle cx="400" cy="260" r="35" fill="#553c9a" opacity="0.25"/>
  <text x="50%" y="335" text-anchor="middle" font-family="system-ui,-apple-system,sans-serif" font-size="28" font-weight="700" fill="white" opacity="0.9">Garbage Dump</text>
  <text x="50%" y="360" text-anchor="middle" font-family="system-ui,-apple-system,sans-serif" font-size="13" fill="white" opacity="0.5">Constituency #3 · Demo Image</text>
  <rect x="0" y="560" width="800" height="40" fill="black" opacity="0.25"/>
  <text x="50%" y="586" text-anchor="middle" font-family="system-ui,-apple-system,sans-serif" font-size="11" fill="white" opacity="0.5">Category: Garbage · MP Portal Demo</text>
  <rect x="660" y="16" width="124" height="28" rx="14" fill="#553c9a" opacity="0.2"/>
  <text x="722" y="34" text-anchor="middle" font-family="system-ui,-apple-system,sans-serif" font-size="11" fill="#553c9a" opacity="0.8">Garbage</text>
</svg>