<svg xmlns="http://www.w3.org/2000/svg" width="800" height="600" viewBox="0 0 800 600">
  <defs>
    <linearGradient id="bg1" x1="0%" y1="0%" x2="100%" y2="100%">
      <stop offset="0%" stop-color="#6b46c1"/>
      <stop offset="50%" stop-color="#322659" stop-opacity="0.3"/>
      <stop offset="100%" stop-color="#6b46c1"/>
    </linearGradient>
    <pattern id="grid1" width="40" height="40" patternUnits="userSpaceOnUse"><path d="M 40 0 L 0 0 0 40" fill="none" stroke="white" stroke-width="0.5" opacity="0.03"/></pattern>
  </defs>
  <rect width="100%" height="100%" fill="url(#bg1)"/>
  <rect width="100%" height="100%" fill="url(#grid1)"/>
  <rect x="231" y="396" width="201" height="152" rx="8" fill="#322659" opacity="0.06"/>
  <circle cx="717" cy="107" r="103" fill="#322659" opacity="0.06"/>
  <rect x="16" y="306" width="191" height="133" rx="8" fill="#322659" opacity="0.08"/>
  <circle cx="610" cy="502" r="81" fill="#322659" opacity="0.12"/>
  <rect x="296" y="46" width="158" height="62" rx="8" fill="#322659" opacity="0.09"/>
  <circle cx="326" cy="90" r="171" fill="#322659" opacity="0.11"/>
  <circle cx="651" cy="124" r="74" fill="#322659" opacity="0.05"/>
  <rect x="455" y="82" width="225" height="244" rx="8" fill="#322659" opacity="0.09"/>
  <circle cx="719" cy="66" r="173" fill="#322659" opacity="0.13"/>
  <circle cx="514" cy="518" r="67" fill="none" stroke="#322659" stroke-width="2" opacity="0.12"/>
  <circle cx="689" cy="303" r="44" fill="none" stroke="#322659" stroke-width="2" opacity="0.12"/>
  <circle cx="77" cy="108" r="42" fill="none" stroke="#322659" stroke-width="2" opacity="0.12"/>
  <circle cx="567" cy="209" r="69" fill="none" stroke="#322659" stroke-width="2" opacity="0.12"/>
  <rect x="0" y="0" width="800" height="8" fill="#322659" opacity="0.7"/>
  <circle cx="400" cy="260" r="60" fill="#322659" opacity="0.12"/>
  <circle cx="400" cy="260" r="35" fill="#322659" opacity="0.25"/>
  <text x="50%" y="335" text-anchor="middle" font-family="system-ui,-apple-system,sans-serif" font-size="25" font-weight="700" fill="white" opacity="0.9">Garbage Dump</text>
  <text x="50%" y="360" text-anchor="middle" font-family="system-ui,-apple-system,sans-serif" font-size="13" fill="white" opacity="0.5">Constituency #2 · Demo Image</text>
  <rect x="0" y="560" width="800" height="40" fill="black" opacity="0.25"/>
  <text x="50%" y="586" text-anchor="middle" font-family="system-ui,-apple-system,sans-serif" font-size="11" fill="white" opacity="0.5">Category: Garbage · MP Portal Demo</text>
  <rect x="660" y="16" width="124" height="28" rx="14" fill="#322659" opacity="0.2"/>
  <text x="722" y="34" text-anchor="middle" font-family="system-ui,-apple-system,sans-serif" font-size="11" fill="#322659" opacity="0.8">Garbage</text>
</svg>