<svg xmlns="http://www.w3.org/2000/svg" width="800" height="600" viewBox="0 0 800 600">
  <defs>
    <linearGradient id="bg1" x1="0%" y1="0%" x2="100%" y2="100%">
      <stop offset="0%" stop-color="#8b5e3c"/>
      <stop offset="50%" stop-color="#3e2716" stop-opacity="0.3"/>
      <stop offset="100%" stop-color="#8b5e3c"/>
    </linearGradient>
    <pattern id="grid1" width="40" height="40" patternUnits="userSpaceOnUse"><path d="M 40 0 L 0 0 0 40" fill="none" stroke="white" stroke-width="0.5" opacity="0.03"/></pattern>
  </defs>
  <rect width="100%" height="100%" fill="url(#bg1)"/>
  <rect width="100%" height="100%" fill="url(#grid1)"/>
  <rect x="392" y="72" width="165" height="91" rx="8" fill="#3e2716" opacity="0.1"/>
  <circle cx="763" cy="115" r="56" fill="#3e2716" opacity="0.05"/>
  <circle cx="594" cy="504" r="180" fill="#3e2716" opacity="0.11"/>
  <circle cx="607" cy="127" r="71" fill="#3e2716" opacity="0.06"/>
  <circle cx="184" cy="88" r="88" fill="#3e2716" opacity="0.14"/>
  <circle cx="299" cy="29" r="83" fill="#3e2716" opacity="0.09"/>
  <circle cx="594" cy="378" r="77" fill="none" stroke="#3e2716" stroke-width="2" opacity="0.12"/>
  <circle cx="435" cy="117" r="42" fill="none" stroke="#3e2716" stroke-width="2" opacity="0.12"/>
  <circle cx="621" cy="203" r="30" fill="none" stroke="#3e2716" stroke-width="2" opacity="0.12"/>
  <circle cx="744" cy="358" r="51" fill="none" stroke="#3e2716" stroke-width="2" opacity="0.12"/>
  <circle cx="74" cy="405" r="23" fill="none" stroke="#3e2716" stroke-width="2" opacity="0.12"/>
  <circle cx="179" cy="377" r="54" fill="none" stroke="#3e2716" stroke-width="2" opacity="0.12"/>
  <rect x="0" y="0" width="800" height="8" fill="#3e2716" opacity="0.7"/>
  <circle cx="400" cy="260" r="60" fill="#3e2716" opacity="0.12"/>
  <circle cx="400" cy="260" r="35" fill="#3e2716" opacity="0.25"/>
  <text x="50%" y="335" text-anchor="middle" font-family="system-ui,-apple-system,sans-serif" font-size="27" font-weight="700" fill="white" opacity="0.9">Construction</text>
  <text x="50%" y="360" text-anchor="middle" font-family="system-ui,-apple-system,sans-serif" font-size="13" fill="white" opacity="0.5">Constituency #2 · Demo Image</text>
  <rect x="0" y="560" width="800" height="40" fill="black" opacity="0.25"/>
  <text x="50%" y="586" text-anchor="middle" font-family="system-ui,-apple-system,sans-serif" font-size="11" fill="white" opacity="0.5">Category: Construction · MP Portal Demo</text>
  <rect x="660" y="16" width="124" height="28" rx="14" fill="#3e2716" opacity="0.2"/>
  <text x="722" y="34" text-anchor="middle" font-family="system-ui,-apple-system,sans-serif" font-size="11" fill="#3e2716" opacity="0.8">Construction</text>
</svg>