<svg xmlns="http://www.w3.org/2000/svg" width="800" height="600" viewBox="0 0 800 600">
  <defs>
    <linearGradient id="bg3" x1="0%" y1="0%" x2="100%" y2="100%">
      <stop offset="0%" stop-color="#6b4226"/>
      <stop offset="50%" stop-color="#8b5e3c" stop-opacity="0.3"/>
      <stop offset="100%" stop-color="#6b4226"/>
    </linearGradient>
    <pattern id="grid3" width="40" height="40" patternUnits="userSpaceOnUse"><path d="M 40 0 L 0 0 0 40" fill="none" stroke="white" stroke-width="0.5" opacity="0.03"/></pattern>
  </defs>
  <rect width="100%" height="100%" fill="url(#bg3)"/>
  <rect width="100%" height="100%" fill="url(#grid3)"/>
  <rect x="38" y="504" width="168" height="183" rx="8" fill="#8b5e3c" opacity="0.11"/>
  <circle cx="230" cy="587" r="94" fill="#8b5e3c" opacity="0.08"/>
  <rect x="175" y="110" width="78" height="217" rx="8" fill="#8b5e3c" opacity="0.07"/>
  <circle cx="675" cy="320" r="47" fill="#8b5e3c" opacity="0.13"/>
  <rect x="305" y="206" width="219" height="137" rx="8" fill="#8b5e3c" opacity="0.15"/>
  <circle cx="478" cy="290" r="45" fill="none" stroke="#8b5e3c" stroke-width="2" opacity="0.12"/>
  <circle cx="191" cy="431" r="21" fill="none" stroke="#8b5e3c" stroke-width="2" opacity="0.12"/>
  <circle cx="674" cy="167" r="41" fill="none" stroke="#8b5e3c" stroke-width="2" opacity="0.12"/>
  <circle cx="477" cy="273" r="39" fill="none" stroke="#8b5e3c" stroke-width="2" opacity="0.12"/>
  <circle cx="639" cy="516" r="66" fill="none" stroke="#8b5e3c" stroke-width="2" opacity="0.12"/>
  <rect x="0" y="0" width="800" height="8" fill="#8b5e3c" opacity="0.7"/>
  <circle cx="400" cy="260" r="60" fill="#8b5e3c" opacity="0.12"/>
  <circle cx="400" cy="260" r="35" fill="#8b5e3c" opacity="0.25"/>
  <text x="50%" y="335" text-anchor="middle" font-family="system-ui,-apple-system,sans-serif" font-size="23" font-weight="700" fill="white" opacity="0.9">Construction</text>
  <text x="50%" y="360" text-anchor="middle" font-family="system-ui,-apple-system,sans-serif" font-size="13" fill="white" opacity="0.5">Constituency #4 · Demo Image</text>
  <rect x="0" y="560" width="800" height="40" fill="black" opacity="0.25"/>
  <text x="50%" y="586" text-anchor="middle" font-family="system-ui,-apple-system,sans-serif" font-size="11" fill="white" opacity="0.5">Category: Construction · MP Portal Demo</text>
  <rect x="660" y="16" width="124" height="28" rx="14" fill="#8b5e3c" opacity="0.2"/>
  <text x="722" y="34" text-anchor="middle" font-family="system-ui,-apple-system,sans-serif" font-size="11" fill="#8b5e3c" opacity="0.8">Construction</text>
</svg>