<svg xmlns="http://www.w3.org/2000/svg" width="800" height="600" viewBox="0 0 800 600">
  <defs>
    <linearGradient id="bg2" x1="0%" y1="0%" x2="100%" y2="100%">
      <stop offset="0%" stop-color="#3e2716"/>
      <stop offset="50%" stop-color="#6b4226" stop-opacity="0.3"/>
      <stop offset="100%" stop-color="#3e2716"/>
    </linearGradient>
    <pattern id="grid2" width="40" height="40" patternUnits="userSpaceOnUse"><path d="M 40 0 L 0 0 0 40" fill="none" stroke="white" stroke-width="0.5" opacity="0.03"/></pattern>
  </defs>
  <rect width="100%" height="100%" fill="url(#bg2)"/>
  <rect width="100%" height="100%" fill="url(#grid2)"/>
  <circle cx="390" cy="76" r="117" fill="#6b4226" opacity="0.07"/>
  <rect x="558" y="363" width="156" height="228" rx="8" fill="#6b4226" opacity="0.11"/>
  <circle cx="35" cy="20" r="60" fill="#6b4226" opacity="0.12"/>
  <rect x="519" y="280" width="138" height="93" rx="8" fill="#6b4226" opacity="0.08"/>
  <rect x="221" y="444" width="102" height="88" rx="8" fill="#6b4226" opacity="0.09"/>
  <circle cx="324" cy="47" r="148" fill="#6b4226" opacity="0.11"/>
  <rect x="505" y="90" width="153" height="143" rx="8" fill="#6b4226" opacity="0.15"/>
  <circle cx="381" cy="70" r="89" fill="#6b4226" opacity="0.07"/>
  <circle cx="451" cy="67" r="73" fill="none" stroke="#6b4226" stroke-width="2" opacity="0.12"/>
  <circle cx="629" cy="542" r="25" fill="none" stroke="#6b4226" stroke-width="2" opacity="0.12"/>
  <circle cx="88" cy="334" r="46" fill="none" stroke="#6b4226" stroke-width="2" opacity="0.12"/>
  <circle cx="314" cy="518" r="38" fill="none" stroke="#6b4226" stroke-width="2" opacity="0.12"/>
  <circle cx="524" cy="172" r="78" fill="none" stroke="#6b4226" stroke-width="2" opacity="0.12"/>
  <rect x="0" y="0" width="800" height="8" fill="#6b4226" opacity="0.7"/>
  <circle cx="400" cy="260" r="60" fill="#6b4226" opacity="0.12"/>
  <circle cx="400" cy="260" r="35" fill="#6b4226" opacity="0.25"/>
  <text x="50%" y="335" text-anchor="middle" font-family="system-ui,-apple-system,sans-serif" font-size="24" font-weight="700" fill="white" opacity="0.9">Construction</text>
  <text x="50%" y="360" text-anchor="middle" font-family="system-ui,-apple-system,sans-serif" font-size="13" fill="white" opacity="0.5">Constituency #3 · Demo Image</text>
  <rect x="0" y="560" width="800" height="40" fill="black" opacity="0.25"/>
  <text x="50%" y="586" text-anchor="middle" font-family="system-ui,-apple-system,sans-serif" font-size="11" fill="white" opacity="0.5">Category: Construction · MP Portal Demo</text>
  <rect x="660" y="16" width="124" height="28" rx="14" fill="#6b4226" opacity="0.2"/>
  <text x="722" y="34" text-anchor="middle" font-family="system-ui,-apple-system,sans-serif" font-size="11" fill="#6b4226" opacity="0.8">Construction</text>
</svg>