<svg xmlns="http://www.w3.org/2000/svg" width="800" height="600" viewBox="0 0 800 600">
  <defs>
    <linearGradient id="bg3" x1="0%" y1="0%" x2="100%" y2="100%">
      <stop offset="0%" stop-color="#c53030"/>
      <stop offset="50%" stop-color="#e53e3e" stop-opacity="0.3"/>
      <stop offset="100%" stop-color="#c53030"/>
    </linearGradient>
    <pattern id="grid3" width="40" height="40" patternUnits="userSpaceOnUse"><path d="M 40 0 L 0 0 0 40" fill="none" stroke="white" stroke-width="0.5" opacity="0.03"/></pattern>
  </defs>
  <rect width="100%" height="100%" fill="url(#bg3)"/>
  <rect width="100%" height="100%" fill="url(#grid3)"/>
  <circle cx="333" cy="507" r="92" fill="#e53e3e" opacity="0.12"/>
  <rect x="739" y="60" width="104" height="175" rx="8" fill="#e53e3e" opacity="0.06"/>
  <rect x="635" y="34" width="163" height="75" rx="8" fill="#e53e3e" opacity="0.1"/>
  <rect x="366" y="448" width="120" height="197" rx="8" fill="#e53e3e" opacity="0.13"/>
  <rect x="258" y="493" width="94" height="236" rx="8" fill="#e53e3e" opacity="0.08"/>
  <circle cx="317" cy="177" r="35" fill="none" stroke="#e53e3e" stroke-width="2" opacity="0.12"/>
  <circle cx="476" cy="62" r="37" fill="none" stroke="#e53e3e" stroke-width="2" opacity="0.12"/>
  <circle cx="65" cy="154" r="77" fill="none" stroke="#e53e3e" stroke-width="2" opacity="0.12"/>
  <circle cx="67" cy="420" r="28" fill="none" stroke="#e53e3e" stroke-width="2" opacity="0.12"/>
  <rect x="0" y="0" width="800" height="8" fill="#e53e3e" opacity="0.7"/>
  <circle cx="400" cy="260" r="60" fill="#e53e3e" opacity="0.12"/>
  <circle cx="400" cy="260" r="35" fill="#e53e3e" opacity="0.25"/>
  <text x="50%" y="335" text-anchor="middle" font-family="system-ui,-apple-system,sans-serif" font-size="26" font-weight="700" fill="white" opacity="0.9">Pothole Hazard</text>
  <text x="50%" y="360" text-anchor="middle" font-family="system-ui,-apple-system,sans-serif" font-size="13" fill="white" opacity="0.5">Constituency #4 · Demo Image</text>
  <rect x="0" y="560" width="800" height="40" fill="black" opacity="0.25"/>
  <text x="50%" y="586" text-anchor="middle" font-family="system-ui,-apple-system,sans-serif" font-size="11" fill="white" opacity="0.5">Category: Potholes · MP Portal Demo</text>
  <rect x="660" y="16" width="124" height="28" rx="14" fill="#e53e3e" opacity="0.2"/>
  <text x="722" y="34" text-anchor="middle" font-family="system-ui,-apple-system,sans-serif" font-size="11" fill="#e53e3e" opacity="0.8">Potholes</text>
</svg>