<svg xmlns="http://www.w3.org/2000/svg" width="800" height="600" viewBox="0 0 800 600">
  <defs>
    <linearGradient id="bg2" x1="0%" y1="0%" x2="100%" y2="100%">
      <stop offset="0%" stop-color="#742a2a"/>
      <stop offset="50%" stop-color="#c53030" stop-opacity="0.3"/>
      <stop offset="100%" stop-color="#742a2a"/>
    </linearGradient>
    <pattern id="grid2" width="40" height="40" patternUnits="userSpaceOnUse"><path d="M 40 0 L 0 0 0 40" fill="none" stroke="white" stroke-width="0.5" opacity="0.03"/></pattern>
  </defs>
  <rect width="100%" height="100%" fill="url(#bg2)"/>
  <rect width="100%" height="100%" fill="url(#grid2)"/>
  <rect x="308" y="270" width="72" height="194" rx="8" fill="#c53030" opacity="0.06"/>
  <circle cx="394" cy="133" r="157" fill="#c53030" opacity="0.05"/>
  <circle cx="513" cy="29" r="59" fill="#c53030" opacity="0.14"/>
  <circle cx="790" cy="346" r="165" fill="#c53030" opacity="0.14"/>
  <rect x="142" y="280" width="106" height="91" rx="8" fill="#c53030" opacity="0.09"/>
  <rect x="463" y="334" width="163" height="203" rx="8" fill="#c53030" opacity="0.07"/>
  <circle cx="744" cy="180" r="50" fill="none" stroke="#c53030" stroke-width="2" opacity="0.12"/>
  <circle cx="663" cy="268" r="27" fill="none" stroke="#c53030" stroke-width="2" opacity="0.12"/>
  <circle cx="554" cy="295" r="58" fill="none" stroke="#c53030" stroke-width="2" opacity="0.12"/>
  <circle cx="631" cy="260" r="27" fill="none" stroke="#c53030" stroke-width="2" opacity="0.12"/>
  <circle cx="213" cy="366" r="67" fill="none" stroke="#c53030" stroke-width="2" opacity="0.12"/>
  <circle cx="306" cy="158" r="31" fill="none" stroke="#c53030" stroke-width="2" opacity="0.12"/>
  <rect x="0" y="0" width="800" height="8" fill="#c53030" opacity="0.7"/>
  <circle cx="400" cy="260" r="60" fill="#c53030" opacity="0.12"/>
  <circle cx="400" cy="260" r="35" fill="#c53030" opacity="0.25"/>
  <text x="50%" y="335" text-anchor="middle" font-family="system-ui,-apple-system,sans-serif" font-size="23" font-weight="700" fill="white" opacity="0.9">Pothole Hazard</text>
  <text x="50%" y="360" text-anchor="middle" font-family="system-ui,-apple-system,sans-serif" font-size="13" fill="white" opacity="0.5">Constituency #3 · Demo Image</text>
  <rect x="0" y="560" width="800" height="40" fill="black" opacity="0.25"/>
  <text x="50%" y="586" text-anchor="middle" font-family="system-ui,-apple-system,sans-serif" font-size="11" fill="white" opacity="0.5">Category: Potholes · MP Portal Demo</text>
  <rect x="660" y="16" width="124" height="28" rx="14" fill="#c53030" opacity="0.2"/>
  <text x="722" y="34" text-anchor="middle" font-family="system-ui,-apple-system,sans-serif" font-size="11" fill="#c53030" opacity="0.8">Potholes</text>
</svg>